<?xml version="1.0" encoding="UTF-8" standalone="no"?>
<svg
     xmlns:dc="http://purl.org/dc/elements/1.1/"
     xmlns:cc="http://creativecommons.org/ns#"
     xmlns:rdf="http://www.w3.org/1999/02/22-rdf-syntax-ns#"
     xmlns:svg="http://www.w3.org/2000/svg"
     xmlns="http://www.w3.org/2000/svg"
     xmlns:sodipodi="http://sodipodi.sourceforge.net/DTD/sodipodi-0.dtd"
     xmlns:inkscape="http://www.inkscape.org/namespaces/inkscape"
     height="39.179951"
     width="179.38905"
     version="1.1"
     id="svg2"
     inkscape:version="0.48.3.1 r9886"
     sodipodi:docname="comic.svg">
    <metadata
         id="metadata18">
        <rdf:RDF>
            <cc:Work
                 rdf:about="">
                <dc:format>image/svg+xml</dc:format>
                <dc:type
                     rdf:resource="http://purl.org/dc/dcmitype/StillImage" />
            </cc:Work>
        </rdf:RDF>
    </metadata>
    <defs
         id="defs16" />
    <sodipodi:namedview
         pagecolor="#ffffff"
         bordercolor="#666666"
         borderopacity="1"
         objecttolerance="10"
         gridtolerance="10"
         guidetolerance="10"
         inkscape:pageopacity="0"
         inkscape:pageshadow="2"
         inkscape:window-width="1920"
         inkscape:window-height="1124"
         id="namedview14"
         showgrid="false"
         inkscape:zoom="4"
         inkscape:cx="50.770499"
         inkscape:cy="20.218016"
         inkscape:window-x="0"
         inkscape:window-y="24"
         inkscape:window-maximized="1"
         inkscape:current-layer="svg2"
         fit-margin-top="2"
         fit-margin-left="2"
         fit-margin-right="2"
         fit-margin-bottom="2" />
    <g
         transform="matrix(2.3684595,0,0,2.3684595,33.705902,45.828118)"
         style="font-size:40px;font-style:normal;font-variant:normal;font-weight:bold;font-stretch:normal;line-height:125%;letter-spacing:0px;word-spacing:0px;fill:#a6f2ee;fill-opacity:1;stroke:none;font-family:Pothana2000;-inkscape-font-specification:Sans Bold"
         id="flowRoot3763">
        <path
             d="m -0.72070312,-7.7822486 1.24999999,0.8105469 c -1.66016947,2.2005218 -3.75977677,3.3007811 -6.29882807,3.3007813 -1.0286534,-2e-7 -2.0149806,-0.1953125 -2.9589844,-0.5859375 -0.9375047,-0.3906242 -1.7480504,-0.9147122 -2.4316404,-1.5722657 -0.677086,-0.6575494 -1.21745,-1.4420538 -1.621094,-2.3535156 -0.403647,-0.9179634 -0.60547,-1.8815038 -0.605469,-2.8906248 -1e-6,-1.009106 0.201822,-1.972647 0.605469,-2.890625 0.403644,-0.917958 0.944008,-1.708973 1.621094,-2.373047 0.68359,-0.664049 1.4941357,-1.191393 2.4316404,-1.582031 0.9440038,-0.390611 1.930331,-0.585923 2.9589844,-0.585938 0.5208242,1.5e-5 1.025381,0.04884 1.5136718,0.146485 0.4882707,0.09767 0.9179578,0.221368 1.2890625,0.371093 0.371082,0.143244 0.7324098,0.32228 1.0839844,0.53711 0.3515497,0.214857 0.6445181,0.419935 0.8789063,0.615234 0.23436138,0.188815 0.46548094,0.403659 0.69335932,0.644531 0.22785033,0.234387 0.39712099,0.419934 0.5078125,0.556641 0.11066244,0.13022 0.22133941,0.273449 0.33203125,0.429687 l -1.23046874,0.888672 c -0.17579472,-0.221343 -0.31902373,-0.397124 -0.42968753,-0.527343 -0.1106902,-0.130198 -0.3385545,-0.348296 -0.6835937,-0.654297 -0.3385539,-0.305978 -0.67384,-0.550118 -1.0058594,-0.732422 -0.3320424,-0.18879 -0.7649847,-0.361316 -1.2988281,-0.517578 -0.5273535,-0.156237 -1.0774831,-0.234362 -1.6503906,-0.234375 -0.8268307,1.3e-5 -1.6145903,0.156263 -2.3632813,0.46875 -0.7487034,0.312512 -1.393234,0.732434 -1.9335935,1.259765 -0.540369,0.527355 -0.970056,1.158865 -1.289063,1.894532 -0.312502,0.729175 -0.468752,1.497403 -0.46875,2.304687 -2e-6,0.800788 0.156248,1.565761 0.46875,2.2949219 0.319007,0.7291709 0.745439,1.3606807 1.279297,1.8945313 0.5403599,0.5273463 1.1848905,0.9472677 1.9335939,1.2597656 0.7552014,0.3125015 1.5462162,0.4687513 2.3730469,0.46875 0.5663971,1.3e-6 1.1100163,-0.074868 1.6308593,-0.2246094 0.527333,-0.1497378 0.9635305,-0.3222637 1.3085938,-0.5175781 0.3450402,-0.1953102 0.6770711,-0.4329402 0.9960937,-0.7128906 0.325508,-0.2799449 0.5566276,-0.5012988 0.6933594,-0.6640625 0.14321582,-0.1627568 0.28318964,-0.3385379 0.41992188,-0.5273438"
             style="font-size:20px;letter-spacing:1.44999992999999994px;fill:#a6f2ee;font-family:Sawasdee;-inkscape-font-specification:Sawasdee Bold;fill-opacity:1"
             id="path3772"
             inkscape:connector-curvature="0" />
        <path
             d="m 18.434376,-13.963889 c 0.40363,0.917978 0.605452,1.881519 0.605469,2.890625 -1.7e-5,1.009121 -0.201839,1.9726614 -0.605469,2.8906248 -0.397151,0.9114618 -0.937515,1.6959662 -1.621094,2.3535156 -0.677097,0.6575535 -1.484387,1.1816415 -2.421875,1.5722657 -0.931,0.390625 -1.907562,0.5859373 -2.929687,0.5859375 -1.028654,-2e-7 -2.014981,-0.1953125 -2.9589849,-0.5859375 C 7.5652305,-4.6474821 6.7546844,-5.1715701 6.0710945,-5.8291236 5.3940087,-6.486673 4.8536446,-7.2711774 4.4500008,-8.1826392 4.0463538,-9.1006026 3.8445311,-10.064143 3.844532,-11.073264 c -9e-7,-1.009106 0.2018218,-1.972647 0.6054688,-2.890625 0.4036438,-0.917958 0.9440079,-1.708973 1.6210937,-2.373047 0.6835899,-0.664049 1.494136,-1.191393 2.4316406,-1.582031 0.9440039,-0.390611 1.9303309,-0.585923 2.9589849,-0.585938 1.022125,1.5e-5 1.998687,0.195327 2.929687,0.585938 0.937488,0.390638 1.744778,0.917982 2.421875,1.582031 0.683579,0.664074 1.223943,1.455089 1.621094,2.373047 m -13.027344,2.890625 c -2.5e-6,0.800788 0.1562473,1.5657607 0.46875,2.2949217 0.3190071,0.7291709 0.745439,1.3606807 1.2792969,1.8945312 0.5403598,0.5273463 1.1848904,0.9472678 1.9335937,1.2597657 0.7552014,0.3125015 1.5462164,0.4687513 2.3730474,0.46875 1.09374,1.3e-6 2.102853,-0.2636703 3.027343,-0.7910157 0.930977,-0.5338515 1.666654,-1.2532518 2.207032,-2.1582031 0.54035,-0.9114531 0.810532,-1.9010358 0.810546,-2.9687498 -1.4e-5,-1.074211 -0.270196,-2.067048 -0.810546,-2.978516 -0.540378,-0.911447 -1.276055,-1.630847 -2.207032,-2.158203 -0.92449,-0.527331 -1.933603,-0.791002 -3.027343,-0.791016 -0.826831,1.4e-5 -1.6145908,0.156263 -2.3632817,0.46875 -0.7487034,0.312513 -1.393234,0.732434 -1.9335938,1.259766 -0.5403683,0.527355 -0.9700554,1.158865 -1.2890625,1.894531 -0.3125027,0.729176 -0.4687525,1.497404 -0.46875,2.304688"
             style="font-size:20px;letter-spacing:1.44999992999999994px;fill:#a6f2ee;font-family:Sawasdee;-inkscape-font-specification:Sawasdee Bold;fill-opacity:1"
             id="path3774"
             inkscape:connector-curvature="0" />
        <path
             d="m 23.155861,-3.7978736 -1.503906,0 3.007812,-14.7070314 5.341797,10.9960939 5.439453,-10.9960939 2.929688,14.7070314 -1.572266,0 -1.972656,-9.5312504 -4.873047,9.6777348 -4.746094,-9.6777348 -2.050781,9.5312504"
             style="font-size:20px;letter-spacing:1.44999992999999994px;fill:#a6f2ee;font-family:Sawasdee;-inkscape-font-specification:Sawasdee Bold;fill-opacity:1"
             id="path3776"
             inkscape:connector-curvature="0" />
        <path
             d="m 42.99453,-3.7978736 -1.552735,0 0,-14.5800784 1.552735,0 0,14.5800784"
             style="font-size:20px;letter-spacing:1.44999992999999994px;fill:#a6f2ee;font-family:Sawasdee;-inkscape-font-specification:Sawasdee Bold;fill-opacity:1"
             id="path3778"
             inkscape:connector-curvature="0" />
        <path
             d="m 59.415234,-7.7822486 1.25,0.8105469 c -1.66017,2.2005218 -3.759777,3.3007811 -6.298829,3.3007813 -1.028653,-2e-7 -2.01498,-0.1953125 -2.958984,-0.5859375 -0.937505,-0.3906242 -1.748051,-0.9147122 -2.431641,-1.5722657 -0.677085,-0.6575494 -1.217449,-1.4420538 -1.621093,-2.3535156 -0.403647,-0.9179634 -0.60547,-1.8815038 -0.605469,-2.8906248 -10e-7,-1.009106 0.201822,-1.972647 0.605469,-2.890625 0.403644,-0.917958 0.944008,-1.708973 1.621093,-2.373047 0.68359,-0.664049 1.494136,-1.191393 2.431641,-1.582031 0.944004,-0.390611 1.930331,-0.585923 2.958984,-0.585938 0.520825,1.5e-5 1.025382,0.04884 1.513672,0.146485 0.488271,0.09767 0.917958,0.221368 1.289063,0.371093 0.371082,0.143244 0.73241,0.32228 1.083984,0.53711 0.35155,0.214857 0.644518,0.419935 0.878906,0.615234 0.234362,0.188815 0.465481,0.403659 0.69336,0.644531 0.22785,0.234387 0.397121,0.419934 0.507812,0.556641 0.110663,0.13022 0.22134,0.273449 0.332032,0.429687 l -1.230469,0.888672 c -0.175795,-0.221343 -0.319024,-0.397124 -0.429688,-0.527343 -0.11069,-0.130198 -0.338554,-0.348296 -0.683593,-0.654297 -0.338554,-0.305978 -0.67384,-0.550118 -1.00586,-0.732422 -0.332042,-0.18879 -0.764984,-0.361316 -1.298828,-0.517578 -0.527353,-0.156237 -1.077483,-0.234362 -1.650391,-0.234375 -0.82683,1.3e-5 -1.61459,0.156263 -2.363281,0.46875 -0.748703,0.312512 -1.393234,0.732434 -1.933594,1.259765 -0.540368,0.527355 -0.970055,1.158865 -1.289062,1.894532 -0.312503,0.729175 -0.468753,1.497403 -0.46875,2.304687 -3e-6,0.800788 0.156247,1.565761 0.46875,2.2949219 0.319007,0.7291709 0.745439,1.3606807 1.279297,1.8945313 0.54036,0.5273463 1.18489,0.9472677 1.933594,1.2597656 0.755201,0.3125015 1.546216,0.4687513 2.373046,0.46875 0.566398,1.3e-6 1.110017,-0.074868 1.63086,-0.2246094 0.527333,-0.1497378 0.96353,-0.3222637 1.308594,-0.5175781 0.34504,-0.1953102 0.677071,-0.4329402 0.996093,-0.7128906 0.325508,-0.2799449 0.556628,-0.5012988 0.69336,-0.6640625 0.143216,-0.1627568 0.283189,-0.3385379 0.419922,-0.5273438"
             style="font-size:20px;letter-spacing:1.44999992999999994px;fill:#a6f2ee;font-family:Sawasdee;-inkscape-font-specification:Sawasdee Bold;fill-opacity:1"
             id="path3780"
             inkscape:connector-curvature="0" />
    </g>
</svg>
