<?xml version="1.0" encoding="UTF-8" standalone="no"?>
<!-- Created with Inkscape (http://www.inkscape.org/) -->

<svg
     xmlns:dc="http://purl.org/dc/elements/1.1/"
     xmlns:cc="http://creativecommons.org/ns#"
     xmlns:rdf="http://www.w3.org/1999/02/22-rdf-syntax-ns#"
     xmlns:svg="http://www.w3.org/2000/svg"
     xmlns="http://www.w3.org/2000/svg"
     xmlns:sodipodi="http://sodipodi.sourceforge.net/DTD/sodipodi-0.dtd"
     xmlns:inkscape="http://www.inkscape.org/namespaces/inkscape"
     id="svg3951"
     height="33"
     width="142"
     version="1.1"
     inkscape:version="0.48.3.1 r9886"
     sodipodi:docname="foofurpleComicLogo2.svg">
    <defs
         id="defs60" />
    <sodipodi:namedview
         pagecolor="#ffffff"
         bordercolor="#666666"
         borderopacity="1"
         objecttolerance="10"
         gridtolerance="10"
         guidetolerance="10"
         inkscape:pageopacity="0"
         inkscape:pageshadow="2"
         inkscape:window-width="1920"
         inkscape:window-height="1124"
         id="namedview58"
         showgrid="false"
         inkscape:zoom="2"
         inkscape:cx="99.390559"
         inkscape:cy="15.559988"
         inkscape:window-x="0"
         inkscape:window-y="24"
         inkscape:window-maximized="1"
         inkscape:current-layer="svg3951"
         fit-margin-top="0"
         fit-margin-left="0"
         fit-margin-right="0"
         fit-margin-bottom="0" />
    <metadata
         id="metadata3956">
        <rdf:RDF>
            <cc:Work
                 rdf:about="">
                <dc:format>image/svg+xml</dc:format>
                <dc:type
                     rdf:resource="http://purl.org/dc/dcmitype/StillImage" />
                <dc:title />
            </cc:Work>
        </rdf:RDF>
    </metadata>
    <path
         style="fill:#bce7ef"
         id="path3879"
         d="m 15.939079,10.84928 c -1.26271,0 -2.29133,0.469557 -3.08448,1.410048 -0.79315,0.910197 -1.18973,2.335392 -1.18973,4.274208 0,1.938816 0.39658,3.364011 1.18973,4.274208 0.82207,0.910197 1.85069,1.365984 3.08448,1.365984 1.23379,0 2.24726,-0.455787 3.04042,-1.365984 0.38142,-0.44064 0.6761,-0.998325 0.88128,-1.674432 h 10.83974 c -0.17626,1.410048 -0.4847,2.703051 -0.92534,3.877632 -1.11675,2.908224 -2.83525,5.140341 -5.15549,6.697728 C 22.299439,31.235765 19.404989,32 15.939079,32 c -2.11507,0 -4.08281,-0.337365 -5.90458,-1.013472 -1.7914704,-0.705024 -3.3640104,-1.718496 -4.7148404,-3.040416 -1.35084,-1.32192 -2.40838,-2.937141 -3.17261,-4.84704 -0.76424,-1.909899 -1.14567,-4.097952 -1.14567,-6.565536 -0.0289,-2.2032 0.39658,-4.421547 1.27786,-6.653664 0.9102,-2.1439885 2.05586,-3.8184205 3.43699,-5.0232955 1.38113,-1.174581 2.84901,-2.086155 4.4064004,-2.731968 1.58631,-0.676107 3.4962,-1.013472 5.72832,-1.013472 3.37778,0 6.25709,0.764235 8.63655,2.291328 2.37945,1.498176 4.12686,3.701376 5.24361,6.6095995 0.49985,1.32192 0.83722,2.658987 1.01347,4.009824 h -10.79568 c -0.11704,-0.352512 -0.24923,-0.676107 -0.39657,-0.969408 -0.14734,-0.293301 -0.2933,-0.557685 -0.44064,-0.793152 -0.76424,-0.940491 -1.82177,-1.410048 -3.17261,-1.410048"
         inkscape:connector-curvature="0" />
    <path
         style="fill:#bce7ef"
         id="path3881"
         d="m 47.444839,10.84928 c -1.26271,0 -2.29133,0.469557 -3.08448,1.410048 -0.79315,0.910197 -1.18973,2.335392 -1.18973,4.274208 0,1.938816 0.39658,3.364011 1.18973,4.274208 0.82207,0.910197 1.85069,1.365984 3.08448,1.365984 1.23379,0 2.24726,-0.455787 3.04042,-1.365984 0.82206,-0.910197 1.23379,-2.335392 1.23379,-4.274208 0,-1.938816 -0.36766,-3.364011 -1.1016,-4.274208 -0.70503,-0.940491 -1.76256,-1.410048 -3.17261,-1.410048 m 0,21.15072 c -2.11507,0 -4.08281,-0.337365 -5.90458,-1.013472 -1.79147,-0.705024 -3.36401,-1.718496 -4.71484,-3.040416 -1.35084,-1.32192 -2.40838,-2.937141 -3.17261,-4.84704 -0.76424,-1.909899 -1.14567,-4.097952 -1.14567,-6.565536 -0.0289,-2.2032 0.39658,-4.421547 1.27786,-6.653664 0.88128,-2.1439885 2.0118,-3.8046505 3.39293,-4.9792315 1.41005,-1.204875 2.89307,-2.130219 4.45046,-2.776032 1.67443,-0.676107 3.58433,-1.013472 5.72832,-1.013472 4.49453,0 8.09263,1.350837 10.79568,4.053888 1.32192,1.32192 2.35054,2.952288 3.08448,4.8911035 0.76424,1.909899 1.14567,4.069035 1.14567,6.477408 0,2.496501 -0.36766,4.655637 -1.1016,6.477408 -1.11675,2.908224 -2.83525,5.140341 -5.15549,6.697728 C 53.805199,31.235765 50.910749,32 47.444839,32"
         inkscape:connector-curvature="0" />
    <path
         style="fill:#bce7ef"
         id="path3883"
         d="m 85.794289,21.292448 -1.41005,3.52512 -3.52512,7.006176 h -2.07101 l -3.74544,-7.49088 -1.14566,-2.996352 v 10.487232 h -9.38563 V 1.2433285 h 11.10413 l 3.34886,6.741792 1.05754,2.8200955 1.01347,-2.8200955 3.34886,-6.741792 h 10.75162 V 31.823744 h -9.34157 V 21.292448"
         inkscape:connector-curvature="0" />
    <path
         style="fill:#bce7ef"
         id="path3885"
         d="M 98.765629,1.2433285 H 109.47318 V 31.823744 H 98.765629 V 1.2433285"
         inkscape:connector-curvature="0" />
    <path
         style="fill:#bce7ef"
         id="path3887"
         d="m 126.62234,10.84928 c -1.26271,0 -2.29133,0.469557 -3.08448,1.410048 -0.79315,0.910197 -1.18973,2.335392 -1.18973,4.274208 0,1.938816 0.39658,3.364011 1.18973,4.274208 0.82207,0.910197 1.85069,1.365984 3.08448,1.365984 1.23379,0 2.24726,-0.455787 3.04042,-1.365984 0.38142,-0.44064 0.6761,-0.998325 0.88128,-1.674432 h 10.83974 c -0.17626,1.410048 -0.4847,2.703051 -0.92534,3.877632 -1.11675,2.908224 -2.83525,5.140341 -5.15549,6.697728 C 132.9827,31.235765 130.08825,32 126.62234,32 c -2.11507,0 -4.08281,-0.337365 -5.90458,-1.013472 -1.79147,-0.705024 -3.36401,-1.718496 -4.71484,-3.040416 -1.35084,-1.32192 -2.40838,-2.937141 -3.17261,-4.84704 -0.76424,-1.909899 -1.14567,-4.097952 -1.14567,-6.565536 -0.0289,-2.2032 0.39658,-4.421547 1.27786,-6.653664 0.9102,-2.1439885 2.05586,-3.8184205 3.43699,-5.0232955 1.38113,-1.174581 2.84901,-2.086155 4.4064,-2.731968 1.58631,-0.676107 3.4962,-1.013472 5.72832,-1.013472 3.37778,0 6.25709,0.764235 8.63655,2.291328 2.37945,1.498176 4.12686,3.701376 5.24361,6.6095995 0.49985,1.32192 0.83722,2.658987 1.01347,4.009824 h -10.79568 c -0.11704,-0.352512 -0.24923,-0.676107 -0.39657,-0.969408 -0.14734,-0.293301 -0.2933,-0.557685 -0.44064,-0.793152 -0.76424,-0.940491 -1.82177,-1.410048 -3.17261,-1.410048"
         inkscape:connector-curvature="0" />
</svg>
