<?xml version="1.0" encoding="UTF-8" standalone="no"?>
<!-- Created with Inkscape (http://www.inkscape.org/) -->
<svg id="svg3951" xmlns:rdf="http://www.w3.org/1999/02/22-rdf-syntax-ns#" xmlns="http://www.w3.org/2000/svg" height="26" width="118" version="1.1" xmlns:cc="http://creativecommons.org/ns#" xmlns:dc="http://purl.org/dc/elements/1.1/">
 <metadata id="metadata3956">
  <rdf:RDF>
   <cc:Work rdf:about="">
    <dc:format>image/svg+xml</dc:format>
    <dc:type rdf:resource="http://purl.org/dc/dcmitype/StillImage"/>
    <dc:title/>
   </cc:Work>
  </rdf:RDF>
 </metadata>
 <g id="g3891" transform="translate(-8.837 -66.959)">
  <path id="flowRoot4340-2-6-0-2-1-4-5-6-2-3-3" d="m22.701 69.453c-5.822 0.044-8.373 5.364-10.406 9.719 3.314-2.207 4.735 5.151 1.281 4.219-5.101 0.672-3.76 8.035 1.125 7.656 4.636 0.926 9.85-2.629 9.219-7.688 2.797 4.954 10.324 4.609 13.969 1.5 1.618 2.413 5.756 1.728 7.219 2.813 2.543 6.5 14.498 3.302 13.75-3.813 0.076-6.262 0-4.223 0.625-0.063 3.229 5.953 11.341 2.03 16.5 3.188 4.82 1.449 12.63-1.162 7.313-4.75 2.055 1.285 5.509-3.47 4.52 0.437-2.199 5.622-2.197 10.216 6.511 8.375 5.782 2.065 1.687-4.593 6.219-4.719 2.396-2.59 1.876 2.981 4.469 3.5 3.442 2.405 10.241 1.58 10.906-2.75 4.663 1.224 10.801-2.261 9.031-7.5-0.875-6.64-10.88-7.386-14.344-2.438 1.228-7.273-10.662-10.854-13.656-4.531 0.175 3.248-5.48 0.688-7.469 1.563-7.614 0.054-16.936-0.037-25.25-0.031-0.01-5.978-8.919-5.66-12.281-2.594-1.8 1.977-2.307 4.75-5.313 2.719-3.118-0.994-6.833 0.563-9.031 1.938-2.024-2.448-6.287-1.888-8.25-2.406 0.19-3.429-3.937-4.596-6.656-4.344z" stroke="#ebe9dc" fill="#ebe9dc"/>
  <path id="flowRoot4340-1-9-4-5-7-9-6-4-1" fill="#0999a6" d="m24.421 71.081c-1.458 0-2.805 0.344-4.039 1.035-1.3 0.738-1.95 1.597-1.95 2.575 0 0.256-0.013 0.646-0.033 1.172h-1.18l-0.496 1.022h1.643l0.033 8.613c0 1.85-0.348 2.779-1.044 2.779-0.18 0-0.31-0.058-0.376-0.163 0.046-0.136 0.198-0.365 0.446-0.681 0.269-0.316 0.411-0.604 0.411-0.858 0-0.376-0.235-0.708-0.684-1.008-0.427-0.3-0.923-0.45-1.506-0.45-0.651 0-1.188 0.183-1.591 0.559-0.427 0.376-0.634 0.801-0.634 1.267 0 0.662 0.395 1.166 1.18 1.512 0.673 0.316 1.53 0.477 2.583 0.477 2.019 0 3.543-0.574 4.552-1.718 0.852-0.948 1.266-2.139 1.266-3.584v-6.745h2.019l0.547-1.022h-2.566v-1.214c0-1.956 0.442-2.944 1.318-2.944 0.269 0 0.411 0.092 0.411 0.272l-0.479 0.586c-0.292 0.392-0.428 0.713-0.428 0.967 0 0.392 0.218 0.736 0.667 1.022 0.471 0.286 0.98 0.422 1.541 0.422 0.673 0 1.234-0.16 1.659-0.49 0.449-0.346 0.667-0.747 0.667-1.199 0-0.706-0.408-1.256-1.215-1.662-0.717-0.36-1.621-0.545-2.721-0.545zm34.342 0c-1.458 0-2.805 0.344-4.039 1.035-1.3 0.738-1.95 1.597-1.95 2.575 0 0.256-0.013 0.646-0.033 1.172h-1.18l-0.496 1.022h1.643l0.033 8.613c0 1.85-0.348 2.779-1.044 2.779-0.18 0-0.292-0.058-0.359-0.163 0.046-0.136 0.182-0.365 0.428-0.681 0.269-0.316 0.411-0.604 0.411-0.858 0-0.376-0.235-0.708-0.684-1.008-0.427-0.3-0.923-0.45-1.506-0.45-0.651 0-1.188 0.183-1.591 0.559-0.427 0.376-0.634 0.801-0.634 1.267 0 0.662 0.395 1.166 1.18 1.512 0.673 0.316 1.53 0.477 2.583 0.477 2.019 0 3.543-0.574 4.552-1.718 0.852-0.948 1.283-2.139 1.283-3.584v-6.745h2.019l0.531-1.022h-2.549v-1.214c0-1.956 0.425-2.944 1.3-2.944 0.269 0 0.411 0.092 0.411 0.272l-0.479 0.586c-0.292 0.392-0.428 0.713-0.428 0.967 0 0.392 0.218 0.736 0.667 1.022 0.471 0.286 0.995 0.422 1.556 0.422 0.673 0 1.217-0.16 1.643-0.49 0.449-0.346 0.667-0.747 0.667-1.199 0-0.706-0.408-1.256-1.215-1.662-0.717-0.36-1.621-0.545-2.721-0.545zm43.701 0c-1.032 0-1.906 0.161-2.601 0.477-0.785 0.346-1.18 0.85-1.18 1.512 0 0.466 0.224 0.877 0.649 1.253 0.403 0.376 0.935 0.572 1.609 0.572 0.561 0 1.062-0.149 1.488-0.45 0.449-0.3 0.667-0.646 0.667-1.022 0-0.256-0.142-0.542-0.411-0.858-0.246-0.316-0.371-0.532-0.393-0.668 0.068-0.106 0.18-0.163 0.359-0.163 0.673 0 1.01 0.929 1.01 2.794v9.103c0 1.444 0.419 2.637 1.25 3.584 1.032 1.144 2.566 1.718 4.585 1.718 1.032 0 1.888-0.161 2.583-0.477 0.785-0.346 1.18-0.85 1.18-1.512 0-0.466-0.207-0.891-0.634-1.267-0.405-0.376-0.94-0.559-1.591-0.559-0.583 0-1.092 0.149-1.541 0.45-0.427 0.3-0.651 0.632-0.651 1.008 0 0.256 0.13 0.542 0.376 0.858 0.269 0.316 0.422 0.547 0.446 0.681-0.068 0.106-0.198 0.163-0.376 0.163-0.673 0-1.01-0.861-1.01-2.575v-9.294c0-1.458-0.419-2.664-1.248-3.611-1.032-1.144-2.55-1.718-4.568-1.718zm14.647 4.579c-1.795 0-3.266 0.482-4.432 1.444-1.076 0.902-1.626 1.969-1.626 3.203 0 1.248 0.514 2.316 1.523 3.189 1.122 0.978 2.569 1.458 4.363 1.458 1.391 0 2.482-0.136 3.268-0.422 0.942-0.346 1.615-0.931 2.019-1.759 0.134-0.27 0.205-0.547 0.205-0.817 0-0.466-0.201-0.844-0.581-1.144-0.381-0.316-0.913-0.477-1.609-0.477-0.673 0-1.217 0.172-1.643 0.518-0.427 0.33-0.651 0.721-0.651 1.172 0 0.496 0.283 0.875 0.822 1.131 0.18 0.046 0.351 0.09 0.531 0.15 0.269 0.106 0.411 0.186 0.411 0.232 0 0.03-0.36 0.111-1.078 0.232-1.839 0-2.795-1.24-2.841-3.707h6.64c0-1.204-0.431-2.214-1.283-3.026-0.964-0.918-2.31-1.376-4.039-1.376zm-20.258 0.027c-1.144 0-1.966 0.24-2.481 0.722v-0.545h-6.297v0.613c0.673 0.03 1.081 0.065 1.215 0.109 0.337 0.09 0.496 0.295 0.496 0.627l-0.033 10.084c0 0.496-0.058 0.785-0.171 0.845-0.112 0.076-0.526 0.122-1.266 0.136v0.599h7.7v-0.598c-0.739-0.03-1.183-0.089-1.318-0.163-0.202-0.106-0.308-0.381-0.308-0.817v-2.944c0.449 0.36 1.275 0.531 2.463 0.531 1.637 0 2.914-0.504 3.833-1.512 0.739-0.842 1.112-1.838 1.112-3.012 0-1.188-0.371-2.222-1.112-3.094-0.92-1.052-2.195-1.58-3.833-1.58zm-64.439 0.041c-1.861 0-3.373 0.447-4.518 1.349-1.122 0.888-1.677 1.966-1.677 3.23 0 1.248 0.52 2.315 1.574 3.203 1.144 0.948 2.631 1.432 4.449 1.432 1.795 0 3.264-0.484 4.432-1.432 1.122-0.902 1.694-1.969 1.694-3.203 0-1.278-0.525-2.332-1.556-3.176-1.1-0.932-2.558-1.403-4.397-1.403zm12.593 0c-1.861 0-3.356 0.447-4.5 1.349-1.122 0.888-1.677 1.966-1.677 3.23 0 1.248 0.52 2.315 1.574 3.203 1.144 0.948 2.632 1.432 4.449 1.432 1.795 0 3.264-0.484 4.432-1.432 1.122-0.902 1.677-1.969 1.677-3.203 0-1.278-0.509-2.332-1.541-3.176-1.1-0.932-2.575-1.403-4.415-1.403zm38.602 0c-1.054 0-1.833 0.333-2.328 0.995v-0.858h-6.091v0.613c0.717 0.046 1.149 0.114 1.283 0.204 0.156 0.076 0.24 0.34 0.24 0.79v3.216c0 0.798-0.013 1.624-0.033 2.466-0.022 0.512-0.093 0.796-0.205 0.872-0.09 0.06-0.52 0.107-1.283 0.123v0.599h7.717v-0.599c-0.741-0.03-1.194-0.101-1.353-0.191-0.156-0.09-0.24-0.354-0.24-0.79v-4.892c0-0.18 0.119-0.468 0.343-0.858 0.246-0.406 0.466-0.612 0.667-0.627l0.068 0.027c-0.381 0.632-0.564 1.123-0.564 1.5 0 0.482 0.194 0.896 0.599 1.226 0.427 0.33 0.999 0.49 1.694 0.49 0.807 0 1.446-0.218 1.917-0.654 0.427-0.392 0.634-0.861 0.634-1.417 0-0.632-0.278-1.16-0.839-1.58-0.561-0.436-1.305-0.654-2.225-0.654zm-23.561 0.136v0.613c0.763 0.046 1.217 0.114 1.351 0.204 0.156 0.09 0.24 0.376 0.24 0.872v4.47c0 0.812 0.395 1.5 1.18 2.071 0.785 0.572 1.771 0.858 2.959 0.858 1.166 0 2.117-0.308 2.857-0.94v0.736h6.159v-0.599c-0.763-0.046-1.229-0.114-1.386-0.204-0.156-0.09-0.24-0.389-0.24-0.886v-7.196h-6.519v0.613c0.897 0.046 1.428 0.137 1.609 0.272 0.202 0.136 0.308 0.501 0.308 1.117v5.26c-0.337 0.572-0.744 0.858-1.215 0.858-0.717 0-1.078-0.517-1.078-1.541v-6.581h-6.228zm-27.77 0.45c0.875 0 1.3 1.089 1.3 3.271 0 1.428-0.024 2.326-0.068 2.67-0.156 1.368-0.559 2.045-1.232 2.045-0.852 0-1.283-1.123-1.283-3.38 0-1.338 0.024-2.212 0.068-2.602 0.18-1.338 0.586-2.004 1.215-2.004zm12.611 0c0.875 0 1.3 1.089 1.3 3.271 0 1.428-0.024 2.326-0.068 2.67-0.156 1.368-0.559 2.045-1.232 2.045-0.853 0-1.283-1.123-1.283-3.38 0-1.338 0.024-2.212 0.068-2.602 0.18-1.338 0.586-2.004 1.215-2.004zm72.054 0c0.785 0 1.193 0.687 1.215 2.071v0.191 0.79h-2.361v-0.341c0-1.804 0.384-2.711 1.147-2.711zm-21.371 0.232c0.897 0 1.353 1.067 1.353 3.203v1.035c0 2.211-0.49 3.312-1.454 3.312-0.605 0-0.965-0.332-1.078-1.008-0.022-0.286-0.017-1.353-0.017-3.203 0-1.068-0.006-1.711 0.017-1.921 0.156-0.948 0.553-1.417 1.18-1.417z"/>
 </g>
</svg>
