<?xml version="1.0" encoding="UTF-8" standalone="no"?>
<!-- Created with Inkscape (http://www.inkscape.org/) -->

<svg
     xmlns:dc="http://purl.org/dc/elements/1.1/"
     xmlns:cc="http://creativecommons.org/ns#"
     xmlns:rdf="http://www.w3.org/1999/02/22-rdf-syntax-ns#"
     xmlns:svg="http://www.w3.org/2000/svg"
     xmlns="http://www.w3.org/2000/svg"
     xmlns:sodipodi="http://sodipodi.sourceforge.net/DTD/sodipodi-0.dtd"
     xmlns:inkscape="http://www.inkscape.org/namespaces/inkscape"
     id="svg3951"
     height="28"
     width="122"
     version="1.1"
     inkscape:version="0.48.3.1 r9886"
     sodipodi:docname="foofurpleLogo.svg">
    <defs
         id="defs60" />
    <sodipodi:namedview
         pagecolor="#ffffff"
         bordercolor="#666666"
         borderopacity="1"
         objecttolerance="10"
         gridtolerance="10"
         guidetolerance="10"
         inkscape:pageopacity="0"
         inkscape:pageshadow="2"
         inkscape:window-width="1920"
         inkscape:window-height="1124"
         id="namedview58"
         showgrid="false"
         inkscape:zoom="3.4573828"
         inkscape:cx="193.64806"
         inkscape:cy="-14.99882"
         inkscape:window-x="0"
         inkscape:window-y="24"
         inkscape:window-maximized="1"
         inkscape:current-layer="svg3951"
         fit-margin-top="0"
         fit-margin-left="0"
         fit-margin-right="0"
         fit-margin-bottom="0" />
    <metadata
         id="metadata3956">
        <rdf:RDF>
            <cc:Work
                 rdf:about="">
                <dc:format>image/svg+xml</dc:format>
                <dc:type
                     rdf:resource="http://purl.org/dc/dcmitype/StillImage" />
                <dc:title></dc:title>
            </cc:Work>
        </rdf:RDF>
    </metadata>
    <g
         id="g3209"
         transform="translate(0.99210227,1.9782736)">
        <g
             id="g3124"
             transform="matrix(1.5800909,0,0,1.5800909,158.40411,-738.14934)">
            <path
                 id="flowRoot4340-2-6-0-2-1-4-5-6-2"
                 d="m -91.166,469.17 c -0.938,0 -1.804,0.215 -2.598,0.649 -0.837,0.462 -1.255,1.001 -1.255,1.614 0,0.16 -0.008,0.405 -0.022,0.735 h -0.76 l -0.319,0.641 h 1.057 l 0.022,5.398 c 0,1.16 -0.224,1.742 -0.672,1.742 -0.116,0 -0.199,-0.036 -0.242,-0.102 0.029,-0.085 0.127,-0.229 0.286,-0.427 0.173,-0.198 0.264,-0.378 0.264,-0.538 0,-0.236 -0.152,-0.443 -0.44,-0.632 -0.274,-0.189 -0.594,-0.282 -0.969,-0.282 -0.419,0 -0.764,0.114 -1.024,0.35 -0.274,0.236 -0.407,0.502 -0.407,0.794 0,0.415 0.254,0.731 0.76,0.948 0.433,0.198 0.984,0.299 1.662,0.299 1.299,0 2.279,-0.36 2.928,-1.076 0.548,-0.594 0.815,-1.341 0.815,-2.246 v -4.228 h 1.299 l 0.352,-0.641 h -1.651 v -0.76 c 0,-1.226 0.285,-1.845 0.848,-1.845 0.173,0 0.264,0.058 0.264,0.171 l -0.308,0.367 c -0.188,0.245 -0.275,0.446 -0.275,0.606 0,0.245 0.141,0.461 0.429,0.641 0.303,0.179 0.63,0.265 0.991,0.265 0.433,0 0.794,-0.1 1.068,-0.307 0.289,-0.217 0.429,-0.469 0.429,-0.752 0,-0.443 -0.262,-0.787 -0.782,-1.042 -0.462,-0.226 -1.043,-0.342 -1.75,-0.342 z m 22.095,0 c -0.938,0 -1.804,0.215 -2.598,0.649 -0.837,0.462 -1.255,1.001 -1.255,1.614 0,0.16 -0.008,0.405 -0.022,0.735 h -0.76 l -0.319,0.641 h 1.057 l 0.022,5.398 c 0,1.16 -0.224,1.742 -0.672,1.742 -0.115,0 -0.188,-0.036 -0.231,-0.102 0.029,-0.085 0.116,-0.229 0.275,-0.427 0.173,-0.198 0.264,-0.378 0.264,-0.538 0,-0.236 -0.152,-0.443 -0.44,-0.632 -0.274,-0.189 -0.594,-0.282 -0.969,-0.282 -0.419,0 -0.764,0.114 -1.024,0.35 -0.274,0.236 -0.407,0.502 -0.407,0.794 0,0.415 0.254,0.731 0.76,0.948 0.433,0.198 0.984,0.299 1.662,0.299 1.299,0 2.279,-0.36 2.928,-1.076 0.548,-0.594 0.826,-1.341 0.826,-2.246 v -4.228 h 1.299 l 0.341,-0.641 h -1.64 v -0.76 c 0,-1.226 0.274,-1.845 0.837,-1.845 0.173,0 0.264,0.058 0.264,0.171 l -0.308,0.367 c -0.188,0.245 -0.275,0.446 -0.275,0.606 0,0.245 0.141,0.461 0.429,0.641 0.303,0.179 0.641,0.265 1.002,0.265 0.433,0 0.783,-0.1 1.057,-0.307 0.289,-0.217 0.429,-0.469 0.429,-0.752 0,-0.443 -0.262,-0.787 -0.782,-1.042 -0.462,-0.226 -1.043,-0.342 -1.75,-0.342 z m 28.117,0 c -0.664,0 -1.226,0.101 -1.673,0.299 -0.505,0.217 -0.76,0.533 -0.76,0.948 0,0.292 0.144,0.55 0.418,0.786 0.26,0.236 0.602,0.359 1.035,0.359 0.361,0 0.684,-0.093 0.958,-0.282 0.289,-0.189 0.429,-0.405 0.429,-0.641 0,-0.16 -0.091,-0.34 -0.264,-0.538 -0.159,-0.198 -0.239,-0.334 -0.253,-0.419 0.043,-0.066 0.116,-0.102 0.231,-0.102 0.433,0 0.65,0.582 0.65,1.751 v 5.705 c 0,0.905 0.27,1.652 0.804,2.246 0.664,0.717 1.651,1.076 2.95,1.076 0.664,0 1.215,-0.101 1.662,-0.299 0.505,-0.217 0.76,-0.533 0.76,-0.948 0,-0.292 -0.133,-0.559 -0.407,-0.794 -0.26,-0.236 -0.605,-0.35 -1.024,-0.35 -0.375,0 -0.702,0.093 -0.991,0.282 -0.274,0.189 -0.418,0.396 -0.418,0.632 0,0.16 0.083,0.34 0.242,0.538 0.173,0.198 0.272,0.342 0.286,0.427 -0.043,0.066 -0.127,0.102 -0.242,0.102 -0.433,0 -0.65,-0.539 -0.65,-1.614 v -5.825 c 0,-0.914 -0.27,-1.669 -0.804,-2.263 -0.664,-0.717 -1.64,-1.076 -2.939,-1.076 z m 9.424,2.87 c -1.155,0 -2.101,0.302 -2.851,0.905 -0.693,0.566 -1.046,1.234 -1.046,2.007 0,0.782 0.33,1.452 0.98,1.999 0.722,0.613 1.653,0.914 2.807,0.914 0.895,0 1.598,-0.086 2.103,-0.265 0.606,-0.217 1.039,-0.583 1.299,-1.102 0.087,-0.17 0.132,-0.343 0.132,-0.512 0,-0.292 -0.129,-0.529 -0.374,-0.717 -0.245,-0.198 -0.587,-0.299 -1.035,-0.299 -0.433,0 -0.783,0.108 -1.057,0.325 -0.274,0.207 -0.418,0.452 -0.418,0.735 0,0.311 0.182,0.549 0.528,0.709 0.115,0.028 0.226,0.056 0.341,0.094 0.173,0.066 0.264,0.117 0.264,0.145 0,0.019 -0.232,0.07 -0.694,0.145 -1.184,0 -1.799,-0.777 -1.827,-2.323 h 4.271 c 0,-0.754 -0.277,-1.387 -0.826,-1.896 -0.621,-0.575 -1.487,-0.863 -2.598,-0.863 z m -13.035,0.017 c -0.736,0 -1.264,0.151 -1.596,0.453 v -0.342 h -4.051 v 0.384 c 0.433,0.019 0.695,0.04 0.782,0.068 0.216,0.057 0.319,0.185 0.319,0.393 l -0.022,6.32 c 0,0.311 -0.038,0.492 -0.11,0.53 -0.072,0.047 -0.338,0.076 -0.815,0.085 v 0.376 h 4.954 v -0.376 c -0.476,-0.019 -0.761,-0.055 -0.848,-0.103 -0.13,-0.066 -0.198,-0.239 -0.198,-0.512 v -1.845 c 0.289,0.226 0.82,0.333 1.585,0.333 1.054,0 1.874,-0.316 2.466,-0.948 0.476,-0.528 0.716,-1.152 0.716,-1.888 0,-0.745 -0.239,-1.392 -0.716,-1.939 -0.592,-0.66 -1.413,-0.991 -2.466,-0.991 z m -41.46,0.026 c -1.198,0 -2.17,0.28 -2.906,0.846 -0.722,0.556 -1.079,1.232 -1.079,2.024 0,0.783 0.335,1.451 1.013,2.007 0.736,0.594 1.693,0.897 2.862,0.897 1.155,0 2.101,-0.303 2.851,-0.897 0.722,-0.566 1.09,-1.234 1.09,-2.007 0,-0.801 -0.338,-1.462 -1.002,-1.99 -0.707,-0.585 -1.646,-0.88 -2.829,-0.88 z m 8.103,0 c -1.198,0 -2.159,0.28 -2.895,0.846 -0.722,0.556 -1.079,1.232 -1.079,2.024 0,0.783 0.334,1.451 1.013,2.007 0.736,0.594 1.693,0.897 2.862,0.897 1.155,0 2.101,-0.303 2.851,-0.897 0.722,-0.566 1.079,-1.234 1.079,-2.007 0,-0.801 -0.327,-1.462 -0.991,-1.99 -0.707,-0.585 -1.657,-0.88 -2.84,-0.88 z m 24.837,0 c -0.678,0 -1.18,0.209 -1.497,0.624 v -0.538 h -3.919 v 0.384 c 0.462,0.028 0.739,0.072 0.826,0.128 0.101,0.047 0.154,0.213 0.154,0.495 v 2.016 c 0,0.5 -0.008,1.018 -0.022,1.546 -0.014,0.321 -0.06,0.499 -0.132,0.547 -0.058,0.038 -0.335,0.067 -0.826,0.077 v 0.376 h 4.965 v -0.376 c -0.476,-0.019 -0.769,-0.063 -0.87,-0.12 -0.101,-0.057 -0.154,-0.222 -0.154,-0.495 v -3.066 c 0,-0.113 0.076,-0.293 0.22,-0.538 0.159,-0.255 0.299,-0.383 0.429,-0.393 l 0.044,0.017 c -0.245,0.396 -0.363,0.704 -0.363,0.94 0,0.302 0.126,0.561 0.385,0.769 0.274,0.207 0.643,0.307 1.09,0.307 0.52,0 0.93,-0.137 1.233,-0.41 0.274,-0.245 0.407,-0.539 0.407,-0.888 0,-0.396 -0.179,-0.727 -0.539,-0.991 -0.361,-0.273 -0.839,-0.41 -1.431,-0.41 z m -15.16,0.085 v 0.384 c 0.491,0.028 0.783,0.071 0.87,0.128 0.101,0.057 0.154,0.236 0.154,0.547 v 2.801 c 0,0.509 0.254,0.94 0.76,1.298 0.505,0.358 1.139,0.538 1.905,0.538 0.75,0 1.362,-0.193 1.839,-0.589 v 0.461 h 3.963 v -0.376 c -0.491,-0.028 -0.791,-0.072 -0.892,-0.128 -0.101,-0.057 -0.154,-0.244 -0.154,-0.555 v -4.51 h -4.194 v 0.384 c 0.577,0.028 0.919,0.086 1.035,0.171 0.13,0.085 0.198,0.314 0.198,0.7 v 3.297 c -0.217,0.358 -0.479,0.538 -0.782,0.538 -0.462,0 -0.694,-0.324 -0.694,-0.965 v -4.125 h -4.007 z m -17.868,0.282 c 0.563,0 0.837,0.683 0.837,2.05 0,0.896 -0.015,1.457 -0.044,1.674 -0.101,0.858 -0.36,1.281 -0.793,1.281 -0.548,0 -0.826,-0.704 -0.826,-2.118 0,-0.839 0.015,-1.386 0.044,-1.631 0.115,-0.839 0.377,-1.256 0.782,-1.256 z m 8.114,0 c 0.563,0 0.837,0.683 0.837,2.05 0,0.896 -0.015,1.457 -0.044,1.674 -0.101,0.858 -0.36,1.281 -0.793,1.281 -0.548,0 -0.826,-0.704 -0.826,-2.118 0,-0.839 0.015,-1.386 0.044,-1.631 0.115,-0.839 0.378,-1.256 0.782,-1.256 z m 46.359,0 c 0.505,0 0.767,0.431 0.782,1.298 v 0.12 c 0,0.226 0,0.392 0,0.495 h -1.519 v -0.214 c 0,-1.131 0.247,-1.7 0.738,-1.7 z m -13.75,0.145 c 0.577,0 0.87,0.668 0.87,2.007 v 0.649 c 0,1.386 -0.315,2.075 -0.936,2.075 -0.39,0 -0.621,-0.208 -0.694,-0.632 -0.014,-0.179 -0.011,-0.848 -0.011,-2.007 0,-0.669 -0.004,-1.072 0.011,-1.204 0.101,-0.594 0.355,-0.888 0.76,-0.888 z"
                 inkscape:connector-curvature="0"
                 style="fill:none;stroke:#ebe9dc;stroke-width:4" />
            <path
                 id="flowRoot4340-1-9-4-5-7-9-6-4"
                 d="m -91.009,469.12 c -0.923,0 -1.775,0.218 -2.556,0.655 -0.823,0.467 -1.234,1.011 -1.234,1.63 0,0.162 -0.008,0.409 -0.021,0.742 h -0.747 l -0.314,0.647 h 1.04 l 0.021,5.451 c 0,1.171 -0.22,1.759 -0.661,1.759 -0.114,0 -0.196,-0.037 -0.238,-0.103 0.029,-0.086 0.125,-0.231 0.282,-0.431 0.17,-0.2 0.26,-0.382 0.26,-0.543 0,-0.238 -0.149,-0.448 -0.433,-0.638 -0.27,-0.19 -0.584,-0.285 -0.953,-0.285 -0.412,0 -0.752,0.116 -1.007,0.354 -0.27,0.238 -0.401,0.507 -0.401,0.802 0,0.419 0.25,0.738 0.747,0.957 0.426,0.2 0.968,0.302 1.635,0.302 1.278,0 2.242,-0.363 2.881,-1.087 0.539,-0.6 0.801,-1.354 0.801,-2.268 v -4.269 h 1.278 l 0.346,-0.647 h -1.624 v -0.768 c 0,-1.238 0.28,-1.863 0.834,-1.863 0.17,0 0.26,0.058 0.26,0.172 l -0.303,0.371 c -0.185,0.248 -0.271,0.451 -0.271,0.612 0,0.248 0.138,0.466 0.422,0.647 0.298,0.181 0.62,0.267 0.975,0.267 0.426,0 0.781,-0.101 1.05,-0.31 0.284,-0.219 0.422,-0.473 0.422,-0.759 0,-0.447 -0.258,-0.795 -0.769,-1.052 -0.454,-0.228 -1.026,-0.345 -1.722,-0.345 z m 21.734,0 c -0.923,0 -1.775,0.218 -2.556,0.655 -0.823,0.467 -1.234,1.011 -1.234,1.63 0,0.162 -0.008,0.409 -0.021,0.742 h -0.747 l -0.314,0.647 h 1.04 l 0.021,5.451 c 0,1.171 -0.22,1.759 -0.661,1.759 -0.114,0 -0.185,-0.037 -0.227,-0.103 0.029,-0.086 0.115,-0.231 0.271,-0.431 0.17,-0.2 0.26,-0.382 0.26,-0.543 0,-0.238 -0.149,-0.448 -0.433,-0.638 -0.27,-0.19 -0.584,-0.285 -0.953,-0.285 -0.412,0 -0.752,0.116 -1.007,0.354 -0.27,0.238 -0.401,0.507 -0.401,0.802 0,0.419 0.25,0.738 0.747,0.957 0.426,0.2 0.968,0.302 1.635,0.302 1.278,0 2.242,-0.363 2.881,-1.087 0.539,-0.6 0.812,-1.354 0.812,-2.268 v -4.269 h 1.278 l 0.336,-0.647 h -1.613 v -0.768 c 0,-1.238 0.269,-1.863 0.823,-1.863 0.17,0 0.26,0.058 0.26,0.172 l -0.303,0.371 c -0.185,0.248 -0.271,0.451 -0.271,0.612 0,0.248 0.138,0.466 0.422,0.647 0.298,0.181 0.63,0.267 0.985,0.267 0.426,0 0.77,-0.101 1.04,-0.31 0.284,-0.219 0.422,-0.473 0.422,-0.759 0,-0.447 -0.258,-0.795 -0.769,-1.052 -0.454,-0.228 -1.026,-0.345 -1.722,-0.345 z m 27.657,0 c -0.653,0 -1.206,0.102 -1.646,0.302 -0.497,0.219 -0.747,0.538 -0.747,0.957 0,0.295 0.142,0.555 0.411,0.793 0.255,0.238 0.592,0.362 1.018,0.362 0.355,0 0.672,-0.094 0.942,-0.285 0.284,-0.19 0.422,-0.409 0.422,-0.647 0,-0.162 -0.09,-0.343 -0.26,-0.543 -0.156,-0.2 -0.235,-0.337 -0.249,-0.423 0.043,-0.067 0.114,-0.103 0.227,-0.103 0.426,0 0.639,0.588 0.639,1.768 v 5.761 c 0,0.914 0.265,1.669 0.791,2.268 0.653,0.724 1.624,1.087 2.902,1.087 0.653,0 1.195,-0.102 1.635,-0.302 0.497,-0.219 0.747,-0.538 0.747,-0.957 0,-0.295 -0.131,-0.564 -0.401,-0.802 -0.256,-0.238 -0.595,-0.354 -1.007,-0.354 -0.369,0 -0.691,0.094 -0.975,0.285 -0.27,0.19 -0.412,0.4 -0.412,0.638 0,0.162 0.082,0.343 0.238,0.543 0.17,0.2 0.267,0.346 0.282,0.431 -0.043,0.067 -0.125,0.103 -0.238,0.103 -0.426,0 -0.639,-0.545 -0.639,-1.63 v -5.882 c 0,-0.923 -0.265,-1.686 -0.79,-2.285 -0.653,-0.724 -1.614,-1.087 -2.891,-1.087 z m 9.27,2.898 c -1.136,0 -2.067,0.305 -2.805,0.914 -0.681,0.571 -1.029,1.246 -1.029,2.027 0,0.79 0.325,1.466 0.964,2.018 0.71,0.619 1.626,0.923 2.761,0.923 0.88,0 1.571,-0.086 2.068,-0.267 0.596,-0.219 1.022,-0.589 1.278,-1.113 0.085,-0.171 0.13,-0.346 0.13,-0.517 0,-0.295 -0.127,-0.534 -0.368,-0.724 -0.241,-0.2 -0.578,-0.302 -1.018,-0.302 -0.426,0 -0.77,0.109 -1.04,0.328 -0.27,0.209 -0.412,0.456 -0.412,0.742 0,0.314 0.179,0.554 0.52,0.716 0.114,0.029 0.222,0.057 0.336,0.095 0.17,0.067 0.26,0.118 0.26,0.147 0,0.019 -0.228,0.07 -0.682,0.147 -1.164,0 -1.769,-0.785 -1.798,-2.346 h 4.202 c 0,-0.762 -0.273,-1.401 -0.812,-1.915 -0.61,-0.581 -1.462,-0.871 -2.556,-0.871 z m -12.821,0.017 c -0.724,0 -1.244,0.152 -1.57,0.457 v -0.345 h -3.985 v 0.388 c 0.426,0.019 0.684,0.041 0.769,0.069 0.213,0.057 0.314,0.187 0.314,0.397 l -0.021,6.382 c 0,0.314 -0.037,0.497 -0.108,0.535 -0.071,0.048 -0.333,0.077 -0.801,0.086 v 0.379 h 4.873 v -0.379 c -0.468,-0.019 -0.749,-0.056 -0.834,-0.103 -0.128,-0.067 -0.195,-0.241 -0.195,-0.517 v -1.863 c 0.284,0.228 0.807,0.336 1.559,0.336 1.036,0 1.844,-0.319 2.426,-0.957 0.468,-0.533 0.704,-1.163 0.704,-1.906 0,-0.752 -0.235,-1.406 -0.704,-1.958 -0.582,-0.666 -1.389,-1 -2.426,-1 z m -40.782,0.026 c -1.178,0 -2.135,0.283 -2.859,0.854 -0.71,0.562 -1.061,1.244 -1.061,2.044 0,0.79 0.329,1.465 0.996,2.027 0.724,0.6 1.665,0.906 2.816,0.906 1.136,0 2.066,-0.306 2.805,-0.906 0.71,-0.571 1.072,-1.246 1.072,-2.027 0,-0.809 -0.332,-1.476 -0.985,-2.01 -0.696,-0.59 -1.619,-0.888 -2.783,-0.888 z m 7.97,0 c -1.178,0 -2.124,0.283 -2.848,0.854 -0.71,0.562 -1.061,1.244 -1.061,2.044 0,0.79 0.329,1.465 0.996,2.027 0.724,0.6 1.666,0.906 2.816,0.906 1.136,0 2.066,-0.306 2.805,-0.906 0.71,-0.571 1.061,-1.246 1.061,-2.027 0,-0.809 -0.322,-1.476 -0.975,-2.01 -0.696,-0.59 -1.63,-0.888 -2.794,-0.888 z m 24.43,0 c -0.667,0 -1.16,0.211 -1.473,0.63 v -0.543 h -3.855 v 0.388 c 0.454,0.029 0.727,0.072 0.812,0.129 0.099,0.048 0.152,0.215 0.152,0.5 v 2.035 c 0,0.505 -0.008,1.028 -0.021,1.561 -0.014,0.324 -0.059,0.504 -0.13,0.552 -0.057,0.038 -0.329,0.068 -0.812,0.078 v 0.379 h 4.884 v -0.379 c -0.469,-0.019 -0.756,-0.064 -0.856,-0.121 -0.099,-0.057 -0.152,-0.224 -0.152,-0.5 v -3.096 c 0,-0.114 0.075,-0.296 0.217,-0.543 0.156,-0.257 0.295,-0.387 0.422,-0.397 l 0.043,0.017 c -0.241,0.4 -0.357,0.711 -0.357,0.949 0,0.305 0.123,0.567 0.379,0.776 0.27,0.209 0.632,0.31 1.072,0.31 0.511,0 0.915,-0.138 1.213,-0.414 0.27,-0.248 0.401,-0.545 0.401,-0.897 0,-0.4 -0.176,-0.734 -0.531,-1 -0.355,-0.276 -0.826,-0.414 -1.408,-0.414 z m -14.911,0.086 v 0.388 c 0.483,0.029 0.77,0.072 0.855,0.129 0.099,0.057 0.152,0.238 0.152,0.552 v 2.829 c 0,0.514 0.25,0.949 0.747,1.311 0.497,0.362 1.121,0.543 1.873,0.543 0.738,0 1.34,-0.195 1.808,-0.595 v 0.466 h 3.898 v -0.379 c -0.483,-0.029 -0.778,-0.072 -0.877,-0.129 -0.099,-0.057 -0.152,-0.246 -0.152,-0.561 v -4.554 h -4.126 v 0.388 c 0.568,0.029 0.904,0.087 1.018,0.172 0.128,0.086 0.195,0.317 0.195,0.707 v 3.329 c -0.213,0.362 -0.471,0.543 -0.769,0.543 -0.454,0 -0.682,-0.327 -0.682,-0.975 v -4.166 h -3.942 z m -17.575,0.285 c 0.554,0 0.823,0.689 0.823,2.07 0,0.904 -0.015,1.472 -0.043,1.69 -0.099,0.866 -0.354,1.294 -0.78,1.294 -0.539,0 -0.812,-0.711 -0.812,-2.139 0,-0.847 0.015,-1.4 0.043,-1.647 0.114,-0.847 0.371,-1.268 0.769,-1.268 z m 7.981,0 c 0.554,0 0.823,0.689 0.823,2.07 0,0.904 -0.015,1.472 -0.043,1.69 -0.099,0.866 -0.354,1.294 -0.78,1.294 -0.54,0 -0.812,-0.711 -0.812,-2.139 0,-0.847 0.015,-1.4 0.043,-1.647 0.114,-0.847 0.371,-1.268 0.769,-1.268 z m 45.601,0 c 0.497,0 0.755,0.435 0.769,1.311 v 0.121 c 0,0.228 0,0.396 0,0.5 h -1.494 v -0.216 c 0,-1.142 0.243,-1.716 0.726,-1.716 z m -13.525,0.147 c 0.568,0 0.856,0.675 0.856,2.027 v 0.655 c 0,1.399 -0.31,2.096 -0.92,2.096 -0.383,0 -0.611,-0.21 -0.682,-0.638 -0.014,-0.181 -0.011,-0.856 -0.011,-2.027 0,-0.676 -0.004,-1.083 0.011,-1.216 0.099,-0.6 0.35,-0.897 0.747,-0.897 z"
                 inkscape:connector-curvature="0"
                 style="fill:#0999a6" />
        </g>
    </g>
</svg>
