<?xml version="1.0" encoding="UTF-8" standalone="no"?>
<svg
     xmlns:dc="http://purl.org/dc/elements/1.1/"
     xmlns:cc="http://creativecommons.org/ns#"
     xmlns:rdf="http://www.w3.org/1999/02/22-rdf-syntax-ns#"
     xmlns:svg="http://www.w3.org/2000/svg"
     xmlns="http://www.w3.org/2000/svg"
     xmlns:sodipodi="http://sodipodi.sourceforge.net/DTD/sodipodi-0.dtd"
     xmlns:inkscape="http://www.inkscape.org/namespaces/inkscape"
     height="25"
     width="25"
     version="1.0"
     y="0"
     x="0"
     id="svg2"
     inkscape:version="0.48.3.1 r9886"
     sodipodi:docname="plus.svg">
    <metadata
         id="metadata11">
        <rdf:RDF>
            <cc:Work
                 rdf:about="">
                <dc:format>image/svg+xml</dc:format>
                <dc:type
                     rdf:resource="http://purl.org/dc/dcmitype/StillImage" />
                <dc:title />
            </cc:Work>
        </rdf:RDF>
    </metadata>
    <defs
         id="defs9" />
    <sodipodi:namedview
         pagecolor="#ffffff"
         bordercolor="#666666"
         borderopacity="1"
         objecttolerance="10"
         gridtolerance="10"
         guidetolerance="10"
         inkscape:pageopacity="0"
         inkscape:pageshadow="2"
         inkscape:window-width="1920"
         inkscape:window-height="1124"
         id="namedview7"
         showgrid="false"
         fit-margin-top="0"
         fit-margin-left="0"
         fit-margin-right="0"
         fit-margin-bottom="0"
         inkscape:zoom="20"
         inkscape:cx="5.106344"
         inkscape:cy="9.9371944"
         inkscape:window-x="0"
         inkscape:window-y="24"
         inkscape:window-maximized="1"
         inkscape:current-layer="svg2" />
    <path
         style="fill:#86f041;fill-opacity:1;fill-rule:nonzero;stroke:#5d5d5d;stroke-opacity:1;stroke-linejoin:round"
         d="m 3.10543,12.353947 c 0,1.20495 0.9513,2.15625 2.15625,2.15625 l 5.0625,0 10e-7,5.0625 c 0,1.20495 0.982549,2.1875 2.187499,2.1875 1.204951,0 2.156251,-0.98255 2.156248,-2.187502 l 1e-6,-5.0625 5.0625,0 c 1.20495,0 2.156249,-0.9513 2.15625,-2.15625 -1e-6,-1.204951 -0.9513,-2.1875 -2.156248,-2.187502 l -5.0625,-10e-7 0,-5.03125 C 14.66793,3.9302422 13.71663,2.9476923 12.511683,2.94769 c -1.204951,5e-7 -2.187501,0.9825501 -2.1875,2.1874998 l 0,5.0312502 -5.062501,1e-6 c -1.20495,-1e-6 -2.156249,0.982549 -2.15625,2.187499 z"
         id="rect4263"
         inkscape:connector-curvature="0" />
</svg>
