<?xml version="1.0" encoding="UTF-8" standalone="no"?>
<!-- Created with Inkscape (http://www.inkscape.org/) -->

<svg
     xmlns:dc="http://purl.org/dc/elements/1.1/"
     xmlns:cc="http://creativecommons.org/ns#"
     xmlns:rdf="http://www.w3.org/1999/02/22-rdf-syntax-ns#"
     xmlns:svg="http://www.w3.org/2000/svg"
     xmlns="http://www.w3.org/2000/svg"
     xmlns:sodipodi="http://sodipodi.sourceforge.net/DTD/sodipodi-0.dtd"
     xmlns:inkscape="http://www.inkscape.org/namespaces/inkscape"
     width="9"
     height="8.8517561"
     id="svg3277"
     version="1.1"
     inkscape:version="0.48.3.1 r9886"
     sodipodi:docname="foo.svg">
    <defs
         id="defs3279" />
    <sodipodi:namedview
         id="base"
         pagecolor="#ffffff"
         bordercolor="#666666"
         borderopacity="1.0"
         inkscape:pageopacity="0.0"
         inkscape:pageshadow="2"
         inkscape:zoom="8"
         inkscape:cx="-46.043904"
         inkscape:cy="-6.9273608"
         inkscape:document-units="px"
         inkscape:current-layer="layer1"
         showgrid="false"
         fit-margin-top="0"
         fit-margin-left="0"
         fit-margin-right="0"
         fit-margin-bottom="0"
         inkscape:window-width="1920"
         inkscape:window-height="1124"
         inkscape:window-x="0"
         inkscape:window-y="24"
         inkscape:window-maximized="1" />
    <metadata
         id="metadata3282">
        <rdf:RDF>
            <cc:Work
                 rdf:about="">
                <dc:format>image/svg+xml</dc:format>
                <dc:type
                     rdf:resource="http://purl.org/dc/dcmitype/StillImage" />
                <dc:title />
            </cc:Work>
        </rdf:RDF>
    </metadata>
    <g
         inkscape:label="Layer 1"
         inkscape:groupmode="layer"
         id="layer1"
         transform="translate(-308.74078,-423.24975)">
        <path
             transform="matrix(0.81155179,0,0,0.81155179,320.70615,475.5192)"
             sodipodi:type="star"
             style="fill:#405a5c;fill-opacity:1;fill-rule:evenodd;stroke:none"
             id="path3264"
             sodipodi:sides="7"
             sodipodi:cx="-9.166667"
             sodipodi:cy="-59.166668"
             sodipodi:r1="5.669117"
             sodipodi:r2="2.3810291"
             sodipodi:arg1="1.541393"
             sodipodi:arg2="1.990192"
             inkscape:flatsided="false"
             inkscape:rounded="0.37"
             inkscape:randomized="0"
             d="m -9.0000001,-53.500001 c -1.3581259,0.03994 0.104718,-2.93871 -1.1362419,-3.491989 -1.240961,-0.55328 -2.478881,2.525656 -3.356888,1.488736 -0.878008,-1.03692 2.362866,-1.750383 2.021711,-3.065569 -0.341155,-1.315186 -3.520194,-0.363346 -3.256926,-1.696309 0.263268,-1.332963 2.841728,0.756017 3.657275,-0.330713 0.815547,-1.086731 -1.910731,-2.978741 -0.704433,-3.603999 1.206297,-0.625258 1.18071,2.693121 2.538836,2.653176 1.3581257,-0.03995 1.1375525,-3.351084 2.3785128,-2.797804 1.2409604,0.553279 -1.3694059,2.60225 -0.4913982,3.63917 0.8780077,1.03692 3.3292352,-1.199992 3.6703899,0.115194 0.3411548,1.315186 -2.8883317,0.551832 -3.1515997,1.884795 -0.2632679,1.332963 3.0139359,1.854718 2.1983886,2.941448 -0.8155474,1.086731 -2.2322848,-1.914127 -3.4385823,-1.288869 -1.2062975,0.625258 0.4290814,3.512788 -0.9290442,3.552733 z"
             inkscape:transform-center-x="0.052096888"
             inkscape:transform-center-y="0.65513711" />
    </g>
</svg>
