<?xml version="1.0" encoding="UTF-8" standalone="no"?>
<!-- Created with Inkscape (http://www.inkscape.org/) -->
<svg id="svg3951" xmlns:rdf="http://www.w3.org/1999/02/22-rdf-syntax-ns#" xmlns="http://www.w3.org/2000/svg" height="40.5" width="400" version="1.1" xmlns:cc="http://creativecommons.org/ns#" xmlns:dc="http://purl.org/dc/elements/1.1/">
 <metadata id="metadata3956">
  <rdf:RDF>
   <cc:Work rdf:about="">
    <dc:format>image/svg+xml</dc:format>
    <dc:type rdf:resource="http://purl.org/dc/dcmitype/StillImage"/>
    <dc:title/>
   </cc:Work>
  </rdf:RDF>
 </metadata>
 <g id="layer1" transform="translate(103.15 -454.77)">
  <rect id="rect4497" fill-rule="evenodd" rx="5.974" ry="3.636" height="40.5" width="400" y="454.77" x="-103.15" fill="#574332"/>
  <g id="flowRoot2984" fill="#bce7ef" transform="matrix(1.377 0 0 1.377 347.34 528.8)">
   <path id="path3879" d="m-243.24-43.116c-0.917 0-1.664 0.341-2.24 1.024-0.576 0.661-0.864 1.696-0.864 3.104 0 1.408 0.288 2.443 0.864 3.104 0.597 0.661 1.344 0.992 2.24 0.992 0.896 0 1.632-0.331 2.208-0.992 0.277-0.32 0.491-0.725 0.64-1.216h7.872c-0.128 1.024-0.352 1.963-0.672 2.816-0.811 2.112-2.059 3.733-3.744 4.864-1.685 1.109-3.787 1.664-6.304 1.664-1.536 0-2.965-0.245-4.288-0.736-1.301-0.512-2.443-1.248-3.424-2.208-0.981-0.96-1.749-2.133-2.304-3.52-0.555-1.387-0.832-2.976-0.832-4.768-0.021-1.6 0.288-3.211 0.928-4.832 0.661-1.557 1.493-2.773 2.496-3.648 1.003-0.853 2.069-1.515 3.2-1.984 1.152-0.491 2.539-0.736 4.16-0.736 2.453 0 4.544 0.555 6.272 1.664 1.728 1.088 2.997 2.688 3.808 4.8 0.363 0.96 0.608 1.931 0.736 2.912h-7.84c-0.085-0.256-0.181-0.491-0.288-0.704-0.107-0.213-0.213-0.405-0.32-0.576-0.555-0.683-1.323-1.024-2.304-1.024"/>
   <path id="path3881" d="m-220.36-43.116c-0.917 0-1.664 0.341-2.24 1.024-0.576 0.661-0.864 1.696-0.864 3.104 0 1.408 0.288 2.443 0.864 3.104 0.597 0.661 1.344 0.992 2.24 0.992 0.896 0 1.632-0.331 2.208-0.992 0.597-0.661 0.896-1.696 0.896-3.104 0-1.408-0.267-2.443-0.8-3.104-0.512-0.683-1.28-1.024-2.304-1.024m0 15.36c-1.536 0-2.965-0.245-4.288-0.736-1.301-0.512-2.443-1.248-3.424-2.208-0.981-0.96-1.749-2.133-2.304-3.52-0.555-1.387-0.832-2.976-0.832-4.768-0.021-1.6 0.288-3.211 0.928-4.832 0.64-1.557 1.461-2.763 2.464-3.616 1.024-0.875 2.101-1.547 3.232-2.016 1.216-0.491 2.603-0.736 4.16-0.736 3.264 0 5.877 0.981 7.84 2.944 0.96 0.96 1.707 2.144 2.24 3.552 0.555 1.387 0.832 2.955 0.832 4.704 0 1.813-0.267 3.381-0.8 4.704-0.811 2.112-2.059 3.733-3.744 4.864-1.685 1.109-3.787 1.664-6.304 1.664"/>
   <path id="path3883" d="m-192.51-35.532-1.024 2.56-2.56 5.088h-1.504l-2.72-5.44-0.832-2.176v7.616h-6.816v-22.208h8.064l2.432 4.896 0.768 2.048 0.736-2.048 2.432-4.896h7.808v22.208h-6.784v-7.648"/>
   <path id="path3885" d="m-183.09-50.092h7.776v22.208h-7.776v-22.208"/>
   <path id="path3887" d="m-162.86-43.116c-0.917 0-1.664 0.341-2.24 1.024-0.576 0.661-0.864 1.696-0.864 3.104 0 1.408 0.288 2.443 0.864 3.104 0.597 0.661 1.344 0.992 2.24 0.992 0.896 0 1.632-0.331 2.208-0.992 0.277-0.32 0.491-0.725 0.64-1.216h7.872c-0.128 1.024-0.352 1.963-0.672 2.816-0.811 2.112-2.059 3.733-3.744 4.864-1.685 1.109-3.787 1.664-6.304 1.664-1.536 0-2.965-0.245-4.288-0.736-1.301-0.512-2.443-1.248-3.424-2.208-0.981-0.96-1.749-2.133-2.304-3.52-0.555-1.387-0.832-2.976-0.832-4.768-0.021-1.6 0.288-3.211 0.928-4.832 0.661-1.557 1.493-2.773 2.496-3.648 1.003-0.853 2.069-1.515 3.2-1.984 1.152-0.491 2.539-0.736 4.16-0.736 2.453 0 4.544 0.555 6.272 1.664 1.728 1.088 2.997 2.688 3.808 4.8 0.363 0.96 0.608 1.931 0.736 2.912h-7.84c-0.085-0.256-0.181-0.491-0.288-0.704-0.107-0.213-0.213-0.405-0.32-0.576-0.555-0.683-1.323-1.024-2.304-1.024"/>
  </g>
  <g id="g3124" transform="matrix(1.185 0 0 1.185 20.554 -89.279)">
   <path id="flowRoot4340-2-6-0-2-1-4-5-6-2" d="m-91.166 469.17c-0.938 0-1.804 0.215-2.598 0.649-0.837 0.462-1.255 1.001-1.255 1.614 0 0.16-0.008 0.405-0.022 0.735h-0.76l-0.319 0.641h1.057l0.022 5.398c0 1.16-0.224 1.742-0.672 1.742-0.116 0-0.199-0.036-0.242-0.102 0.029-0.085 0.127-0.229 0.286-0.427 0.173-0.198 0.264-0.378 0.264-0.538 0-0.236-0.152-0.443-0.44-0.632-0.274-0.189-0.594-0.282-0.969-0.282-0.419 0-0.764 0.114-1.024 0.35-0.274 0.236-0.407 0.502-0.407 0.794 0 0.415 0.254 0.731 0.76 0.948 0.433 0.198 0.984 0.299 1.662 0.299 1.299 0 2.279-0.36 2.928-1.076 0.548-0.594 0.815-1.341 0.815-2.246v-4.228h1.299l0.352-0.641h-1.651v-0.76c0-1.226 0.285-1.845 0.848-1.845 0.173 0 0.264 0.058 0.264 0.171l-0.308 0.367c-0.188 0.245-0.275 0.446-0.275 0.606 0 0.245 0.141 0.461 0.429 0.641 0.303 0.179 0.63 0.265 0.991 0.265 0.433 0 0.794-0.1 1.068-0.307 0.289-0.217 0.429-0.469 0.429-0.752 0-0.443-0.262-0.787-0.782-1.042-0.462-0.226-1.043-0.342-1.75-0.342zm22.095 0c-0.938 0-1.804 0.215-2.598 0.649-0.837 0.462-1.255 1.001-1.255 1.614 0 0.16-0.008 0.405-0.022 0.735h-0.76l-0.319 0.641h1.057l0.022 5.398c0 1.16-0.224 1.742-0.672 1.742-0.115 0-0.188-0.036-0.231-0.102 0.029-0.085 0.116-0.229 0.275-0.427 0.173-0.198 0.264-0.378 0.264-0.538 0-0.236-0.152-0.443-0.44-0.632-0.274-0.189-0.594-0.282-0.969-0.282-0.419 0-0.764 0.114-1.024 0.35-0.274 0.236-0.407 0.502-0.407 0.794 0 0.415 0.254 0.731 0.76 0.948 0.433 0.198 0.984 0.299 1.662 0.299 1.299 0 2.279-0.36 2.928-1.076 0.548-0.594 0.826-1.341 0.826-2.246v-4.228h1.299l0.341-0.641h-1.64v-0.76c0-1.226 0.274-1.845 0.837-1.845 0.173 0 0.264 0.058 0.264 0.171l-0.308 0.367c-0.188 0.245-0.275 0.446-0.275 0.606 0 0.245 0.141 0.461 0.429 0.641 0.303 0.179 0.641 0.265 1.002 0.265 0.433 0 0.783-0.1 1.057-0.307 0.289-0.217 0.429-0.469 0.429-0.752 0-0.443-0.262-0.787-0.782-1.042-0.462-0.226-1.043-0.342-1.75-0.342zm28.117 0c-0.664 0-1.226 0.101-1.673 0.299-0.505 0.217-0.76 0.533-0.76 0.948 0 0.292 0.144 0.55 0.418 0.786 0.26 0.236 0.602 0.359 1.035 0.359 0.361 0 0.684-0.093 0.958-0.282 0.289-0.189 0.429-0.405 0.429-0.641 0-0.16-0.091-0.34-0.264-0.538-0.159-0.198-0.239-0.334-0.253-0.419 0.043-0.066 0.116-0.102 0.231-0.102 0.433 0 0.65 0.582 0.65 1.751v5.705c0 0.905 0.27 1.652 0.804 2.246 0.664 0.717 1.651 1.076 2.95 1.076 0.664 0 1.215-0.101 1.662-0.299 0.505-0.217 0.76-0.533 0.76-0.948 0-0.292-0.133-0.559-0.407-0.794-0.26-0.236-0.605-0.35-1.024-0.35-0.375 0-0.702 0.093-0.991 0.282-0.274 0.189-0.418 0.396-0.418 0.632 0 0.16 0.083 0.34 0.242 0.538 0.173 0.198 0.272 0.342 0.286 0.427-0.043 0.066-0.127 0.102-0.242 0.102-0.433 0-0.65-0.539-0.65-1.614v-5.825c0-0.914-0.27-1.669-0.804-2.263-0.664-0.717-1.64-1.076-2.939-1.076zm9.424 2.87c-1.155 0-2.101 0.302-2.851 0.905-0.693 0.566-1.046 1.234-1.046 2.007 0 0.782 0.33 1.452 0.98 1.999 0.722 0.613 1.653 0.914 2.807 0.914 0.895 0 1.598-0.086 2.103-0.265 0.606-0.217 1.039-0.583 1.299-1.102 0.087-0.17 0.132-0.343 0.132-0.512 0-0.292-0.129-0.529-0.374-0.717-0.245-0.198-0.587-0.299-1.035-0.299-0.433 0-0.783 0.108-1.057 0.325-0.274 0.207-0.418 0.452-0.418 0.735 0 0.311 0.182 0.549 0.528 0.709 0.115 0.028 0.226 0.056 0.341 0.094 0.173 0.066 0.264 0.117 0.264 0.145 0 0.019-0.232 0.07-0.694 0.145-1.184 0-1.799-0.777-1.827-2.323h4.271c0-0.754-0.277-1.387-0.826-1.896-0.621-0.575-1.487-0.863-2.598-0.863zm-13.035 0.017c-0.736 0-1.264 0.151-1.596 0.453v-0.342h-4.051v0.384c0.433 0.019 0.695 0.04 0.782 0.068 0.216 0.057 0.319 0.185 0.319 0.393l-0.022 6.32c0 0.311-0.038 0.492-0.11 0.53-0.072 0.047-0.338 0.076-0.815 0.085v0.376h4.954v-0.376c-0.476-0.019-0.761-0.055-0.848-0.103-0.13-0.066-0.198-0.239-0.198-0.512v-1.845c0.289 0.226 0.82 0.333 1.585 0.333 1.054 0 1.874-0.316 2.466-0.948 0.476-0.528 0.716-1.152 0.716-1.888 0-0.745-0.239-1.392-0.716-1.939-0.592-0.66-1.413-0.991-2.466-0.991zm-41.46 0.026c-1.198 0-2.17 0.28-2.906 0.846-0.722 0.556-1.079 1.232-1.079 2.024 0 0.783 0.335 1.451 1.013 2.007 0.736 0.594 1.693 0.897 2.862 0.897 1.155 0 2.101-0.303 2.851-0.897 0.722-0.566 1.09-1.234 1.09-2.007 0-0.801-0.338-1.462-1.002-1.99-0.707-0.585-1.646-0.88-2.829-0.88zm8.103 0c-1.198 0-2.159 0.28-2.895 0.846-0.722 0.556-1.079 1.232-1.079 2.024 0 0.783 0.334 1.451 1.013 2.007 0.736 0.594 1.693 0.897 2.862 0.897 1.155 0 2.101-0.303 2.851-0.897 0.722-0.566 1.079-1.234 1.079-2.007 0-0.801-0.327-1.462-0.991-1.99-0.707-0.585-1.657-0.88-2.84-0.88zm24.837 0c-0.678 0-1.18 0.209-1.497 0.624v-0.538h-3.919v0.384c0.462 0.028 0.739 0.072 0.826 0.128 0.101 0.047 0.154 0.213 0.154 0.495v2.016c0 0.5-0.008 1.018-0.022 1.546-0.014 0.321-0.06 0.499-0.132 0.547-0.058 0.038-0.335 0.067-0.826 0.077v0.376h4.965v-0.376c-0.476-0.019-0.769-0.063-0.87-0.12-0.101-0.057-0.154-0.222-0.154-0.495v-3.066c0-0.113 0.076-0.293 0.22-0.538 0.159-0.255 0.299-0.383 0.429-0.393l0.044 0.017c-0.245 0.396-0.363 0.704-0.363 0.94 0 0.302 0.126 0.561 0.385 0.769 0.274 0.207 0.643 0.307 1.09 0.307 0.52 0 0.93-0.137 1.233-0.41 0.274-0.245 0.407-0.539 0.407-0.888 0-0.396-0.179-0.727-0.539-0.991-0.361-0.273-0.839-0.41-1.431-0.41zm-15.16 0.085v0.384c0.491 0.028 0.783 0.071 0.87 0.128 0.101 0.057 0.154 0.236 0.154 0.547v2.801c0 0.509 0.254 0.94 0.76 1.298 0.505 0.358 1.139 0.538 1.905 0.538 0.75 0 1.362-0.193 1.839-0.589v0.461h3.963v-0.376c-0.491-0.028-0.791-0.072-0.892-0.128-0.101-0.057-0.154-0.244-0.154-0.555v-4.51h-4.194v0.384c0.577 0.028 0.919 0.086 1.035 0.171 0.13 0.085 0.198 0.314 0.198 0.7v3.297c-0.217 0.358-0.479 0.538-0.782 0.538-0.462 0-0.694-0.324-0.694-0.965v-4.125h-4.007zm-17.868 0.282c0.563 0 0.837 0.683 0.837 2.05 0 0.896-0.015 1.457-0.044 1.674-0.101 0.858-0.36 1.281-0.793 1.281-0.548 0-0.826-0.704-0.826-2.118 0-0.839 0.015-1.386 0.044-1.631 0.115-0.839 0.377-1.256 0.782-1.256zm8.114 0c0.563 0 0.837 0.683 0.837 2.05 0 0.896-0.015 1.457-0.044 1.674-0.101 0.858-0.36 1.281-0.793 1.281-0.548 0-0.826-0.704-0.826-2.118 0-0.839 0.015-1.386 0.044-1.631 0.115-0.839 0.378-1.256 0.782-1.256zm46.359 0c0.505 0 0.767 0.431 0.782 1.298v0.12c0 0.226 0 0.392 0 0.495h-1.519v-0.214c0-1.131 0.247-1.7 0.738-1.7zm-13.75 0.145c0.577 0 0.87 0.668 0.87 2.007v0.649c0 1.386-0.315 2.075-0.936 2.075-0.39 0-0.621-0.208-0.694-0.632-0.014-0.179-0.011-0.848-0.011-2.007 0-0.669-0.004-1.072 0.011-1.204 0.101-0.594 0.355-0.888 0.76-0.888z" stroke="#ebe9dc" stroke-width="4" fill="none"/>
   <path id="flowRoot4340-1-9-4-5-7-9-6-4" d="m-91.009 469.12c-0.923 0-1.775 0.218-2.556 0.655-0.823 0.467-1.234 1.011-1.234 1.63 0 0.162-0.008 0.409-0.021 0.742h-0.747l-0.314 0.647h1.04l0.021 5.451c0 1.171-0.22 1.759-0.661 1.759-0.114 0-0.196-0.037-0.238-0.103 0.029-0.086 0.125-0.231 0.282-0.431 0.17-0.2 0.26-0.382 0.26-0.543 0-0.238-0.149-0.448-0.433-0.638-0.27-0.19-0.584-0.285-0.953-0.285-0.412 0-0.752 0.116-1.007 0.354-0.27 0.238-0.401 0.507-0.401 0.802 0 0.419 0.25 0.738 0.747 0.957 0.426 0.2 0.968 0.302 1.635 0.302 1.278 0 2.242-0.363 2.881-1.087 0.539-0.6 0.801-1.354 0.801-2.268v-4.269h1.278l0.346-0.647h-1.624v-0.768c0-1.238 0.28-1.863 0.834-1.863 0.17 0 0.26 0.058 0.26 0.172l-0.303 0.371c-0.185 0.248-0.271 0.451-0.271 0.612 0 0.248 0.138 0.466 0.422 0.647 0.298 0.181 0.62 0.267 0.975 0.267 0.426 0 0.781-0.101 1.05-0.31 0.284-0.219 0.422-0.473 0.422-0.759 0-0.447-0.258-0.795-0.769-1.052-0.454-0.228-1.026-0.345-1.722-0.345zm21.734 0c-0.923 0-1.775 0.218-2.556 0.655-0.823 0.467-1.234 1.011-1.234 1.63 0 0.162-0.008 0.409-0.021 0.742h-0.747l-0.314 0.647h1.04l0.021 5.451c0 1.171-0.22 1.759-0.661 1.759-0.114 0-0.185-0.037-0.227-0.103 0.029-0.086 0.115-0.231 0.271-0.431 0.17-0.2 0.26-0.382 0.26-0.543 0-0.238-0.149-0.448-0.433-0.638-0.27-0.19-0.584-0.285-0.953-0.285-0.412 0-0.752 0.116-1.007 0.354-0.27 0.238-0.401 0.507-0.401 0.802 0 0.419 0.25 0.738 0.747 0.957 0.426 0.2 0.968 0.302 1.635 0.302 1.278 0 2.242-0.363 2.881-1.087 0.539-0.6 0.812-1.354 0.812-2.268v-4.269h1.278l0.336-0.647h-1.613v-0.768c0-1.238 0.269-1.863 0.823-1.863 0.17 0 0.26 0.058 0.26 0.172l-0.303 0.371c-0.185 0.248-0.271 0.451-0.271 0.612 0 0.248 0.138 0.466 0.422 0.647 0.298 0.181 0.63 0.267 0.985 0.267 0.426 0 0.77-0.101 1.04-0.31 0.284-0.219 0.422-0.473 0.422-0.759 0-0.447-0.258-0.795-0.769-1.052-0.454-0.228-1.026-0.345-1.722-0.345zm27.657 0c-0.653 0-1.206 0.102-1.646 0.302-0.497 0.219-0.747 0.538-0.747 0.957 0 0.295 0.142 0.555 0.411 0.793 0.255 0.238 0.592 0.362 1.018 0.362 0.355 0 0.672-0.094 0.942-0.285 0.284-0.19 0.422-0.409 0.422-0.647 0-0.162-0.09-0.343-0.26-0.543-0.156-0.2-0.235-0.337-0.249-0.423 0.043-0.067 0.114-0.103 0.227-0.103 0.426 0 0.639 0.588 0.639 1.768v5.761c0 0.914 0.265 1.669 0.791 2.268 0.653 0.724 1.624 1.087 2.902 1.087 0.653 0 1.195-0.102 1.635-0.302 0.497-0.219 0.747-0.538 0.747-0.957 0-0.295-0.131-0.564-0.401-0.802-0.256-0.238-0.595-0.354-1.007-0.354-0.369 0-0.691 0.094-0.975 0.285-0.27 0.19-0.412 0.4-0.412 0.638 0 0.162 0.082 0.343 0.238 0.543 0.17 0.2 0.267 0.346 0.282 0.431-0.043 0.067-0.125 0.103-0.238 0.103-0.426 0-0.639-0.545-0.639-1.63v-5.882c0-0.923-0.265-1.686-0.79-2.285-0.653-0.724-1.614-1.087-2.891-1.087zm9.27 2.898c-1.136 0-2.067 0.305-2.805 0.914-0.681 0.571-1.029 1.246-1.029 2.027 0 0.79 0.325 1.466 0.964 2.018 0.71 0.619 1.626 0.923 2.761 0.923 0.88 0 1.571-0.086 2.068-0.267 0.596-0.219 1.022-0.589 1.278-1.113 0.085-0.171 0.13-0.346 0.13-0.517 0-0.295-0.127-0.534-0.368-0.724-0.241-0.2-0.578-0.302-1.018-0.302-0.426 0-0.77 0.109-1.04 0.328-0.27 0.209-0.412 0.456-0.412 0.742 0 0.314 0.179 0.554 0.52 0.716 0.114 0.029 0.222 0.057 0.336 0.095 0.17 0.067 0.26 0.118 0.26 0.147 0 0.019-0.228 0.07-0.682 0.147-1.164 0-1.769-0.785-1.798-2.346h4.202c0-0.762-0.273-1.401-0.812-1.915-0.61-0.581-1.462-0.871-2.556-0.871zm-12.821 0.017c-0.724 0-1.244 0.152-1.57 0.457v-0.345h-3.985v0.388c0.426 0.019 0.684 0.041 0.769 0.069 0.213 0.057 0.314 0.187 0.314 0.397l-0.021 6.382c0 0.314-0.037 0.497-0.108 0.535-0.071 0.048-0.333 0.077-0.801 0.086v0.379h4.873v-0.379c-0.468-0.019-0.749-0.056-0.834-0.103-0.128-0.067-0.195-0.241-0.195-0.517v-1.863c0.284 0.228 0.807 0.336 1.559 0.336 1.036 0 1.844-0.319 2.426-0.957 0.468-0.533 0.704-1.163 0.704-1.906 0-0.752-0.235-1.406-0.704-1.958-0.582-0.666-1.389-1-2.426-1zm-40.782 0.026c-1.178 0-2.135 0.283-2.859 0.854-0.71 0.562-1.061 1.244-1.061 2.044 0 0.79 0.329 1.465 0.996 2.027 0.724 0.6 1.665 0.906 2.816 0.906 1.136 0 2.066-0.306 2.805-0.906 0.71-0.571 1.072-1.246 1.072-2.027 0-0.809-0.332-1.476-0.985-2.01-0.696-0.59-1.619-0.888-2.783-0.888zm7.97 0c-1.178 0-2.124 0.283-2.848 0.854-0.71 0.562-1.061 1.244-1.061 2.044 0 0.79 0.329 1.465 0.996 2.027 0.724 0.6 1.666 0.906 2.816 0.906 1.136 0 2.066-0.306 2.805-0.906 0.71-0.571 1.061-1.246 1.061-2.027 0-0.809-0.322-1.476-0.975-2.01-0.696-0.59-1.63-0.888-2.794-0.888zm24.43 0c-0.667 0-1.16 0.211-1.473 0.63v-0.543h-3.855v0.388c0.454 0.029 0.727 0.072 0.812 0.129 0.099 0.048 0.152 0.215 0.152 0.5v2.035c0 0.505-0.008 1.028-0.021 1.561-0.014 0.324-0.059 0.504-0.13 0.552-0.057 0.038-0.329 0.068-0.812 0.078v0.379h4.884v-0.379c-0.469-0.019-0.756-0.064-0.856-0.121-0.099-0.057-0.152-0.224-0.152-0.5v-3.096c0-0.114 0.075-0.296 0.217-0.543 0.156-0.257 0.295-0.387 0.422-0.397l0.043 0.017c-0.241 0.4-0.357 0.711-0.357 0.949 0 0.305 0.123 0.567 0.379 0.776 0.27 0.209 0.632 0.31 1.072 0.31 0.511 0 0.915-0.138 1.213-0.414 0.27-0.248 0.401-0.545 0.401-0.897 0-0.4-0.176-0.734-0.531-1-0.355-0.276-0.826-0.414-1.408-0.414zm-14.911 0.086v0.388c0.483 0.029 0.77 0.072 0.855 0.129 0.099 0.057 0.152 0.238 0.152 0.552v2.829c0 0.514 0.25 0.949 0.747 1.311 0.497 0.362 1.121 0.543 1.873 0.543 0.738 0 1.34-0.195 1.808-0.595v0.466h3.898v-0.379c-0.483-0.029-0.778-0.072-0.877-0.129-0.099-0.057-0.152-0.246-0.152-0.561v-4.554h-4.126v0.388c0.568 0.029 0.904 0.087 1.018 0.172 0.128 0.086 0.195 0.317 0.195 0.707v3.329c-0.213 0.362-0.471 0.543-0.769 0.543-0.454 0-0.682-0.327-0.682-0.975v-4.166h-3.942zm-17.575 0.285c0.554 0 0.823 0.689 0.823 2.07 0 0.904-0.015 1.472-0.043 1.69-0.099 0.866-0.354 1.294-0.78 1.294-0.539 0-0.812-0.711-0.812-2.139 0-0.847 0.015-1.4 0.043-1.647 0.114-0.847 0.371-1.268 0.769-1.268zm7.981 0c0.554 0 0.823 0.689 0.823 2.07 0 0.904-0.015 1.472-0.043 1.69-0.099 0.866-0.354 1.294-0.78 1.294-0.54 0-0.812-0.711-0.812-2.139 0-0.847 0.015-1.4 0.043-1.647 0.114-0.847 0.371-1.268 0.769-1.268zm45.601 0c0.497 0 0.755 0.435 0.769 1.311v0.121c0 0.228 0 0.396 0 0.5h-1.494v-0.216c0-1.142 0.243-1.716 0.726-1.716zm-13.525 0.147c0.568 0 0.856 0.675 0.856 2.027v0.655c0 1.399-0.31 2.096-0.92 2.096-0.383 0-0.611-0.21-0.682-0.638-0.014-0.181-0.011-0.856-0.011-2.027 0-0.676-0.004-1.083 0.011-1.216 0.099-0.6 0.35-0.897 0.747-0.897z" fill="#0999a6"/>
  </g>
  <g id="flowRoot3128-9" opacity=".872" transform="matrix(.793 0 0 .793 202.87 595.49)" fill="#fff">
   <path id="path3932" d="m-68.898-164.79h6.088v1.705h-3.832v1.629h3.603v1.705h-3.603v3.709h-2.256v-8.748"/>
   <path id="path3934" d="m-58.158-161.26c-0.465 0-0.82 0.168-1.066 0.504-0.242 0.332-0.363 0.813-0.363 1.441 0 0.629 0.121 1.111 0.363 1.447 0.246 0.332 0.602 0.498 1.066 0.498 0.457 0 0.807-0.166 1.049-0.498 0.242-0.336 0.363-0.818 0.363-1.447 0-0.629-0.121-1.109-0.363-1.441-0.242-0.336-0.592-0.504-1.049-0.504m0-1.5c1.129 0 2.01 0.305 2.643 0.914 0.637 0.609 0.955 1.453 0.955 2.531 0 1.078-0.318 1.922-0.955 2.531-0.633 0.609-1.514 0.914-2.643 0.914-1.133 0-2.019-0.305-2.66-0.914-0.637-0.609-0.955-1.453-0.955-2.531 0-1.078 0.318-1.922 0.955-2.531 0.641-0.609 1.527-0.914 2.66-0.914"/>
   <path id="path3936" d="m-48.156-160.81c-0.184-0.086-0.367-0.148-0.551-0.188-0.18-0.043-0.361-0.064-0.545-0.064-0.539 0-0.955 0.174-1.248 0.521-0.289 0.344-0.434 0.838-0.434 1.482v3.023h-2.098v-6.563h2.098v1.078c0.27-0.43 0.578-0.742 0.926-0.938 0.352-0.199 0.771-0.299 1.26-0.299 0.07 0 0.146 0.004 0.229 0.012 0.082 0.004 0.201 0.016 0.357 0.035l0.006 1.898"/>
   <path id="path3938" d="m-39.988-158.99c-0.438 0-0.768 0.074-0.99 0.223-0.219 0.148-0.328 0.367-0.328 0.656 0 0.266 0.088 0.475 0.264 0.627 0.18 0.148 0.428 0.223 0.744 0.223 0.395 0 0.727-0.141 0.996-0.422 0.27-0.285 0.404-0.641 0.404-1.066v-0.24h-1.09m3.205-0.791v3.744h-2.115v-0.973c-0.281 0.398-0.598 0.689-0.949 0.873-0.352 0.18-0.779 0.27-1.283 0.27-0.68 0-1.232-0.197-1.658-0.592-0.422-0.398-0.633-0.914-0.633-1.547 0-0.77 0.264-1.334 0.791-1.693 0.531-0.359 1.363-0.539 2.496-0.539h1.236v-0.164c0-0.332-0.131-0.574-0.393-0.727-0.262-0.156-0.67-0.234-1.225-0.234-0.449 0-0.867 0.045-1.254 0.135-0.387 0.09-0.746 0.225-1.078 0.404v-1.6c0.449-0.109 0.9-0.191 1.353-0.246 0.453-0.059 0.906-0.088 1.359-0.088 1.184 0 2.037 0.234 2.561 0.703 0.527 0.465 0.791 1.223 0.791 2.273"/>
   <path id="path3940" d="m-34.82-165.16h2.098v9.117h-2.098v-9.117"/>
   <path id="path3942" d="m-30.695-165.16h2.098v9.117h-2.098v-9.117"/>
   <path id="path3944" d="m-23.26-162.6h2.098l1.764 4.453 1.5-4.453h2.098l-2.76 7.184c-0.277 0.73-0.602 1.24-0.973 1.529-0.367 0.293-0.854 0.439-1.459 0.439h-1.213v-1.377h0.656c0.355 0 0.613-0.057 0.773-0.17 0.164-0.113 0.291-0.316 0.381-0.609l0.059-0.182-2.924-6.814"/>
   <path id="path3946" d="m-11.447-161.26c-0.465 0-0.82 0.168-1.066 0.504-0.242 0.332-0.363 0.813-0.363 1.441 0 0.629 0.121 1.111 0.363 1.447 0.246 0.332 0.602 0.498 1.066 0.498 0.457 0 0.807-0.166 1.049-0.498 0.242-0.336 0.363-0.818 0.363-1.447 0-0.629-0.121-1.109-0.363-1.441-0.242-0.336-0.592-0.504-1.049-0.504m0-1.5c1.129 0 2.01 0.305 2.643 0.914 0.637 0.609 0.955 1.453 0.955 2.531 0 1.078-0.318 1.922-0.955 2.531-0.633 0.609-1.514 0.914-2.643 0.914-1.133 0-2.019-0.305-2.66-0.914-0.637-0.609-0.955-1.453-0.955-2.531 0-1.078 0.318-1.922 0.955-2.531 0.641-0.609 1.527-0.914 2.66-0.914"/>
   <path id="path3948" d="m-6.391-158.59v-4.008h2.109v0.656c0 0.355-0.002 0.803-0.006 1.342-0.004 0.535-0.006 0.893-0.006 1.072 0 0.527 0.014 0.908 0.041 1.143 0.027 0.23 0.074 0.398 0.141 0.504 0.086 0.137 0.197 0.242 0.334 0.316 0.141 0.074 0.301 0.111 0.48 0.111 0.438 0 0.781-0.168 1.031-0.504 0.25-0.336 0.375-0.803 0.375-1.4v-3.24h2.098v6.563h-2.098v-0.949c-0.316 0.383-0.652 0.666-1.008 0.85-0.352 0.18-0.74 0.27-1.166 0.27-0.758 0-1.336-0.232-1.734-0.697-0.395-0.465-0.592-1.141-0.592-2.027"/>
   <path id="path3950" d="m7.109-160.81c-0.184-0.086-0.367-0.148-0.551-0.188-0.18-0.043-0.361-0.064-0.545-0.064-0.539 0-0.955 0.174-1.248 0.521-0.289 0.344-0.434 0.838-0.434 1.482v3.023h-2.098v-6.563h2.098v1.078c0.27-0.43 0.578-0.742 0.926-0.938 0.352-0.199 0.771-0.299 1.26-0.299 0.07 0 0.146 0.004 0.229 0.012 0.082 0.004 0.201 0.016 0.357 0.035l0.006 1.898"/>
   <path id="path3952" d="m14.434-156.99v3.445h-2.098v-9.059h2.098v0.961c0.289-0.383 0.609-0.664 0.961-0.844 0.352-0.184 0.756-0.275 1.213-0.275 0.809 0 1.473 0.322 1.992 0.967 0.52 0.641 0.779 1.467 0.779 2.478 0 1.012-0.26 1.84-0.779 2.484-0.52 0.641-1.184 0.961-1.992 0.961-0.457 0-0.861-0.09-1.213-0.27-0.352-0.184-0.672-0.467-0.961-0.85m1.395-4.248c-0.449 0-0.795 0.166-1.037 0.498-0.238 0.328-0.357 0.803-0.357 1.424 0 0.621 0.119 1.098 0.357 1.43 0.242 0.328 0.588 0.492 1.037 0.492 0.449 0 0.791-0.164 1.025-0.492 0.238-0.328 0.357-0.805 0.357-1.43 0-0.625-0.119-1.102-0.357-1.43-0.234-0.328-0.576-0.492-1.025-0.492"/>
   <path id="path3954" d="m20.867-158.59v-4.008h2.109v0.656c0 0.355-0.002 0.803-0.006 1.342-0.004 0.535-0.006 0.893-0.006 1.072 0 0.527 0.014 0.908 0.041 1.143 0.027 0.23 0.074 0.398 0.141 0.504 0.086 0.137 0.197 0.242 0.334 0.316 0.141 0.074 0.301 0.111 0.48 0.111 0.438 0 0.781-0.168 1.031-0.504 0.25-0.336 0.375-0.803 0.375-1.4v-3.24h2.098v6.563h-2.098v-0.949c-0.316 0.383-0.652 0.666-1.008 0.85-0.352 0.18-0.74 0.27-1.166 0.27-0.758 0-1.336-0.232-1.734-0.697-0.395-0.465-0.592-1.141-0.592-2.027"/>
   <path id="path3956" d="m32.984-157.39c0.449 0 0.791-0.164 1.025-0.492 0.238-0.328 0.357-0.805 0.357-1.43 0-0.625-0.119-1.102-0.357-1.43-0.234-0.328-0.576-0.492-1.025-0.492-0.449 0-0.795 0.166-1.037 0.498-0.238 0.328-0.357 0.803-0.357 1.424 0 0.621 0.119 1.098 0.357 1.43 0.242 0.328 0.588 0.492 1.037 0.492m-1.395-4.248c0.289-0.383 0.609-0.664 0.961-0.844 0.352-0.184 0.756-0.275 1.213-0.275 0.809 0 1.473 0.322 1.992 0.967 0.52 0.641 0.779 1.467 0.779 2.478 0 1.012-0.26 1.84-0.779 2.484-0.52 0.641-1.184 0.961-1.992 0.961-0.457 0-0.861-0.09-1.213-0.27-0.352-0.184-0.672-0.467-0.961-0.85v0.949h-2.098v-9.117h2.098v3.516"/>
   <path id="path3958" d="m38.094-165.16h2.098v9.117h-2.098v-9.117"/>
   <path id="path3960" d="m42.219-162.6h2.098v6.563h-2.098v-6.563m0-2.555h2.098v1.711h-2.098v-1.711"/>
   <path id="path3962" d="m51.646-162.4v1.711c-0.285-0.195-0.572-0.34-0.861-0.434-0.285-0.094-0.582-0.141-0.891-0.141-0.586 0-1.043 0.172-1.371 0.516-0.324 0.34-0.486 0.816-0.486 1.43 0 0.613 0.162 1.092 0.486 1.436 0.328 0.34 0.785 0.51 1.371 0.51 0.328 0 0.639-0.049 0.932-0.146 0.297-0.098 0.57-0.242 0.82-0.434v1.717c-0.328 0.121-0.662 0.211-1.002 0.27-0.336 0.063-0.674 0.094-1.014 0.094-1.184 0-2.109-0.303-2.777-0.908-0.668-0.609-1.002-1.455-1.002-2.537s0.334-1.926 1.002-2.531c0.668-0.609 1.594-0.914 2.777-0.914 0.344 0 0.682 0.031 1.014 0.094 0.336 0.059 0.67 0.148 1.002 0.27"/>
   <path id="path3964" d="m62.105-161.64v-3.516h2.109v9.117h-2.109v-0.949c-0.289 0.387-0.607 0.67-0.955 0.85-0.348 0.18-0.75 0.27-1.207 0.27-0.809 0-1.473-0.32-1.992-0.961-0.52-0.645-0.779-1.473-0.779-2.484 0-1.012 0.26-1.838 0.779-2.478 0.52-0.645 1.184-0.967 1.992-0.967 0.453 0 0.854 0.092 1.201 0.275 0.352 0.18 0.672 0.461 0.961 0.844m-1.383 4.248c0.449 0 0.791-0.164 1.025-0.492 0.238-0.328 0.357-0.805 0.357-1.43 0-0.625-0.119-1.102-0.357-1.43-0.234-0.328-0.576-0.492-1.025-0.492-0.445 0-0.787 0.164-1.025 0.492-0.234 0.328-0.352 0.805-0.352 1.43 0 0.625 0.117 1.102 0.352 1.43 0.238 0.328 0.58 0.492 1.025 0.492"/>
   <path id="path3966" d="m69.365-161.26c-0.465 0-0.82 0.168-1.066 0.504-0.242 0.332-0.363 0.813-0.363 1.441 0 0.629 0.121 1.111 0.363 1.447 0.246 0.332 0.602 0.498 1.066 0.498 0.457 0 0.807-0.166 1.049-0.498 0.242-0.336 0.363-0.818 0.363-1.447 0-0.629-0.121-1.109-0.363-1.441-0.242-0.336-0.592-0.504-1.049-0.504m0-1.5c1.129 0 2.01 0.305 2.643 0.914 0.637 0.609 0.955 1.453 0.955 2.531 0 1.078-0.318 1.922-0.955 2.531-0.633 0.609-1.514 0.914-2.643 0.914-1.133 0-2.019-0.305-2.66-0.914-0.637-0.609-0.955-1.453-0.955-2.531 0-1.078 0.318-1.922 0.955-2.531 0.641-0.609 1.527-0.914 2.66-0.914"/>
   <path id="path3968" d="m80.574-161.51c0.266-0.406 0.58-0.715 0.943-0.926 0.367-0.215 0.77-0.322 1.207-0.322 0.754 0 1.328 0.232 1.723 0.697 0.395 0.465 0.592 1.141 0.592 2.027v3.996h-2.109v-3.422c0.004-0.051 0.006-0.104 0.006-0.158 0.004-0.055 0.006-0.133 0.006-0.234 0-0.465-0.068-0.801-0.205-1.008-0.137-0.211-0.357-0.316-0.662-0.316-0.398 0-0.707 0.164-0.926 0.492-0.215 0.328-0.326 0.803-0.334 1.424v3.223h-2.109v-3.422c0-0.727-0.063-1.193-0.188-1.4-0.125-0.211-0.348-0.316-0.668-0.316-0.402 0-0.713 0.166-0.932 0.498-0.219 0.328-0.328 0.799-0.328 1.412v3.228h-2.109v-6.563h2.109v0.961c0.258-0.371 0.553-0.65 0.885-0.838 0.336-0.188 0.705-0.281 1.107-0.281 0.453 0 0.854 0.109 1.201 0.328 0.348 0.219 0.611 0.525 0.791 0.92"/>
   <path id="path3970" d="m89.949-158.99c-0.438 0-0.768 0.074-0.99 0.223-0.219 0.148-0.328 0.367-0.328 0.656 0 0.266 0.088 0.475 0.264 0.627 0.18 0.148 0.428 0.223 0.744 0.223 0.395 0 0.727-0.141 0.996-0.422 0.27-0.285 0.404-0.641 0.404-1.066v-0.24h-1.09m3.205-0.791v3.744h-2.115v-0.973c-0.281 0.398-0.598 0.689-0.949 0.873-0.352 0.18-0.779 0.27-1.283 0.27-0.68 0-1.232-0.197-1.658-0.592-0.422-0.398-0.633-0.914-0.633-1.547 0-0.77 0.264-1.334 0.791-1.693 0.531-0.359 1.363-0.539 2.496-0.539h1.236v-0.164c0-0.332-0.131-0.574-0.393-0.727-0.262-0.156-0.67-0.234-1.225-0.234-0.449 0-0.867 0.045-1.254 0.135-0.387 0.09-0.746 0.225-1.078 0.404v-1.6c0.449-0.109 0.9-0.191 1.353-0.246 0.453-0.059 0.906-0.088 1.359-0.088 1.184 0 2.037 0.234 2.561 0.703 0.527 0.465 0.791 1.223 0.791 2.273"/>
   <path id="path3972" d="m95.117-162.6h2.098v6.563h-2.098v-6.563m0-2.555h2.098v1.711h-2.098v-1.711"/>
   <path id="path3974" d="m105.84-160.04v3.996h-2.109v-0.65-2.408c0-0.566-0.014-0.957-0.041-1.172-0.023-0.215-0.066-0.373-0.129-0.475-0.082-0.137-0.193-0.242-0.334-0.316-0.141-0.078-0.301-0.117-0.48-0.117-0.438 0-0.781 0.17-1.031 0.51-0.25 0.336-0.375 0.803-0.375 1.4v3.228h-2.098v-6.563h2.098v0.961c0.316-0.383 0.652-0.664 1.008-0.844 0.355-0.184 0.748-0.275 1.178-0.275 0.758 0 1.332 0.232 1.723 0.697 0.395 0.465 0.592 1.141 0.592 2.027"/>
   <path id="path3976" d="m-69.578-147.6h2.039l1.102 4.523 1.107-4.523h1.752l1.102 4.477 1.107-4.477h2.039l-1.728 6.563h-2.291l-1.107-4.512-1.102 4.512h-2.291l-1.728-6.563"/>
   <path id="path3978" d="m-51.355-144.34v0.598h-4.904c0.051 0.492 0.229 0.861 0.533 1.107 0.305 0.246 0.73 0.369 1.277 0.369 0.441 0 0.893-0.064 1.353-0.193 0.465-0.133 0.941-0.332 1.43-0.598v1.617c-0.496 0.188-0.992 0.328-1.488 0.422-0.496 0.098-0.992 0.146-1.488 0.146-1.188 0-2.111-0.301-2.772-0.902-0.656-0.605-0.984-1.453-0.984-2.543 0-1.07 0.322-1.912 0.967-2.525 0.648-0.613 1.539-0.92 2.672-0.92 1.031 0 1.855 0.311 2.473 0.932 0.621 0.621 0.932 1.451 0.932 2.49m-2.156-0.697c0-0.398-0.117-0.719-0.352-0.961-0.23-0.246-0.533-0.369-0.908-0.369-0.406 0-0.736 0.115-0.99 0.346-0.254 0.227-0.412 0.555-0.475 0.984h2.725"/>
   <path id="path3980" d="m-46.281-142.39c0.449 0 0.791-0.164 1.025-0.492 0.238-0.328 0.357-0.805 0.357-1.43 0-0.625-0.119-1.102-0.357-1.43-0.234-0.328-0.576-0.492-1.025-0.492-0.449 0-0.795 0.166-1.037 0.498-0.238 0.328-0.357 0.803-0.357 1.424 0 0.621 0.119 1.098 0.357 1.43 0.242 0.328 0.588 0.492 1.037 0.492m-1.395-4.248c0.289-0.383 0.609-0.664 0.961-0.844 0.352-0.184 0.756-0.275 1.213-0.275 0.809 0 1.473 0.322 1.992 0.967 0.52 0.641 0.779 1.467 0.779 2.478 0 1.012-0.26 1.84-0.779 2.484-0.52 0.641-1.184 0.961-1.992 0.961-0.457 0-0.861-0.09-1.213-0.27-0.352-0.184-0.672-0.467-0.961-0.85v0.949h-2.098v-9.117h2.098v3.516"/>
   <path id="path3982" d="m-31.697-147.4v1.711c-0.285-0.195-0.572-0.34-0.861-0.434-0.285-0.094-0.582-0.141-0.891-0.141-0.586 0-1.043 0.172-1.371 0.516-0.324 0.34-0.486 0.816-0.486 1.43 0 0.613 0.162 1.092 0.486 1.436 0.328 0.34 0.785 0.51 1.371 0.51 0.328 0 0.639-0.049 0.932-0.146 0.297-0.098 0.57-0.242 0.82-0.434v1.717c-0.328 0.121-0.662 0.211-1.002 0.27-0.336 0.063-0.674 0.094-1.014 0.094-1.184 0-2.109-0.303-2.777-0.908-0.668-0.609-1.002-1.455-1.002-2.537 0-1.082 0.334-1.926 1.002-2.531 0.668-0.609 1.594-0.914 2.777-0.914 0.344 0 0.682 0.031 1.014 0.094 0.336 0.059 0.67 0.148 1.002 0.27"/>
   <path id="path3984" d="m-26.752-146.26c-0.465 0-0.82 0.168-1.066 0.504-0.242 0.332-0.363 0.813-0.363 1.441 0 0.629 0.121 1.111 0.363 1.447 0.246 0.332 0.602 0.498 1.066 0.498 0.457 0 0.807-0.166 1.049-0.498 0.242-0.336 0.363-0.818 0.363-1.447 0-0.629-0.121-1.109-0.363-1.441-0.242-0.336-0.592-0.504-1.049-0.504m0-1.5c1.129 0 2.01 0.305 2.643 0.914 0.637 0.609 0.955 1.453 0.955 2.531 0 1.078-0.318 1.922-0.955 2.531-0.633 0.609-1.514 0.914-2.643 0.914-1.133 0-2.019-0.305-2.66-0.914-0.637-0.609-0.955-1.453-0.955-2.531 0-1.078 0.318-1.922 0.955-2.531 0.641-0.609 1.527-0.914 2.66-0.914"/>
   <path id="path3986" d="m-15.543-146.51c0.266-0.406 0.58-0.715 0.943-0.926 0.367-0.215 0.77-0.322 1.207-0.322 0.754 0 1.328 0.232 1.723 0.697 0.395 0.465 0.592 1.141 0.592 2.027v3.996h-2.109v-3.422c0.004-0.051 0.006-0.104 0.006-0.158 0.004-0.055 0.006-0.133 0.006-0.234 0-0.465-0.068-0.801-0.205-1.008-0.137-0.211-0.357-0.316-0.662-0.316-0.398 0-0.707 0.164-0.926 0.492-0.215 0.328-0.326 0.803-0.334 1.424v3.223h-2.109v-3.422c0-0.727-0.063-1.193-0.188-1.4-0.125-0.211-0.348-0.316-0.668-0.316-0.402 0-0.713 0.166-0.932 0.498-0.219 0.328-0.328 0.799-0.328 1.412v3.228h-2.109v-6.563h2.109v0.961c0.258-0.371 0.553-0.65 0.885-0.838 0.336-0.188 0.705-0.281 1.107-0.281 0.453 0 0.854 0.109 1.201 0.328 0.348 0.219 0.611 0.525 0.791 0.92"/>
   <path id="path3988" d="m-9.109-147.6h2.098v6.563h-2.098v-6.563m0-2.555h2.098v1.711h-2.098v-1.711"/>
   <path id="path3990" d="m0.318-147.4v1.711c-0.285-0.195-0.572-0.34-0.861-0.434-0.285-0.094-0.582-0.141-0.891-0.141-0.586 0-1.043 0.172-1.371 0.516-0.324 0.34-0.486 0.816-0.486 1.43 0 0.613 0.162 1.092 0.486 1.436 0.328 0.34 0.785 0.51 1.371 0.51 0.328 0 0.639-0.049 0.932-0.146 0.297-0.098 0.57-0.242 0.82-0.434v1.717c-0.328 0.121-0.662 0.211-1.002 0.27-0.336 0.063-0.674 0.094-1.014 0.094-1.184 0-2.109-0.303-2.777-0.908-0.668-0.609-1.002-1.455-1.002-2.537 0-1.082 0.334-1.926 1.002-2.531 0.668-0.609 1.594-0.914 2.777-0.914 0.344 0 0.682 0.031 1.014 0.094 0.336 0.059 0.67 0.148 1.002 0.27"/>
   <path id="path3992" d="m12.395-146.51c0.266-0.406 0.58-0.715 0.943-0.926 0.367-0.215 0.77-0.322 1.207-0.322 0.754 0 1.328 0.232 1.723 0.697 0.395 0.465 0.592 1.141 0.592 2.027v3.996h-2.109v-3.422c0.004-0.051 0.006-0.104 0.006-0.158 0.004-0.055 0.006-0.133 0.006-0.234 0-0.465-0.068-0.801-0.205-1.008-0.137-0.211-0.357-0.316-0.662-0.316-0.398 0-0.707 0.164-0.926 0.492-0.215 0.328-0.326 0.803-0.334 1.424v3.223h-2.109v-3.422c0-0.727-0.063-1.193-0.188-1.4-0.125-0.211-0.348-0.316-0.668-0.316-0.402 0-0.713 0.166-0.932 0.498-0.219 0.328-0.328 0.799-0.328 1.412v3.228h-2.109v-6.563h2.109v0.961c0.258-0.371 0.553-0.65 0.885-0.838 0.336-0.188 0.705-0.281 1.107-0.281 0.453 0 0.854 0.109 1.201 0.328 0.348 0.219 0.611 0.525 0.791 0.92"/>
   <path id="path3994" d="m21.77-143.99c-0.438 0-0.768 0.074-0.99 0.223-0.219 0.148-0.328 0.367-0.328 0.656 0 0.266 0.088 0.475 0.264 0.627 0.18 0.148 0.428 0.223 0.744 0.223 0.395 0 0.727-0.141 0.996-0.422 0.27-0.285 0.404-0.641 0.404-1.066v-0.24h-1.09m3.205-0.791v3.744h-2.115v-0.973c-0.281 0.398-0.598 0.689-0.949 0.873-0.352 0.18-0.779 0.27-1.283 0.27-0.68 0-1.232-0.197-1.658-0.592-0.422-0.398-0.633-0.914-0.633-1.547 0-0.77 0.264-1.334 0.791-1.693 0.531-0.359 1.363-0.539 2.496-0.539h1.236v-0.164c0-0.332-0.131-0.574-0.393-0.727-0.262-0.156-0.67-0.234-1.225-0.234-0.449 0-0.867 0.045-1.254 0.135-0.387 0.09-0.746 0.225-1.078 0.404v-1.6c0.449-0.109 0.9-0.191 1.353-0.246 0.453-0.059 0.906-0.088 1.359-0.088 1.184 0 2.037 0.234 2.561 0.703 0.527 0.465 0.791 1.223 0.791 2.273"/>
   <path id="path3996" d="m32.064-147.4v1.594c-0.449-0.188-0.883-0.328-1.301-0.422-0.418-0.094-0.813-0.141-1.184-0.141-0.398 0-0.695 0.051-0.891 0.152-0.191 0.098-0.287 0.25-0.287 0.457 0 0.168 0.072 0.297 0.217 0.387 0.148 0.09 0.412 0.156 0.791 0.199l0.369 0.053c1.074 0.137 1.797 0.361 2.168 0.674 0.371 0.313 0.557 0.803 0.557 1.471 0 0.699-0.258 1.225-0.773 1.576-0.516 0.352-1.285 0.527-2.309 0.527-0.434 0-0.883-0.035-1.348-0.105-0.461-0.066-0.936-0.168-1.424-0.305v-1.594c0.418 0.203 0.846 0.355 1.283 0.457 0.441 0.102 0.889 0.152 1.342 0.152 0.41 0 0.719-0.057 0.926-0.17 0.207-0.113 0.311-0.281 0.311-0.504 0-0.188-0.072-0.326-0.217-0.416-0.141-0.094-0.424-0.166-0.85-0.217l-0.369-0.047c-0.934-0.117-1.588-0.334-1.963-0.65-0.375-0.316-0.563-0.797-0.563-1.441 0-0.695 0.238-1.211 0.715-1.547 0.477-0.336 1.207-0.504 2.191-0.504 0.387 0 0.793 0.029 1.219 0.088 0.426 0.059 0.889 0.15 1.389 0.275"/>
   <path id="path3998" d="m40.684-145.04v3.996h-2.109v-0.65-2.397c0-0.574-0.014-0.969-0.041-1.184-0.023-0.215-0.066-0.373-0.129-0.475-0.082-0.137-0.193-0.242-0.334-0.316-0.141-0.078-0.301-0.117-0.48-0.117-0.438 0-0.781 0.17-1.031 0.51-0.25 0.336-0.375 0.803-0.375 1.4v3.228h-2.098v-9.117h2.098v3.516c0.316-0.383 0.652-0.664 1.008-0.844 0.355-0.184 0.748-0.275 1.178-0.275 0.758 0 1.332 0.232 1.723 0.697 0.395 0.465 0.592 1.141 0.592 2.027"/>
   <path id="path4000" d="m42.57-143.59v-4.008h2.109v0.656c0 0.355-0.002 0.803-0.006 1.342-0.004 0.535-0.006 0.893-0.006 1.072 0 0.527 0.014 0.908 0.041 1.143 0.027 0.23 0.074 0.398 0.141 0.504 0.086 0.137 0.197 0.242 0.334 0.316 0.141 0.074 0.301 0.111 0.48 0.111 0.438 0 0.781-0.168 1.031-0.504 0.25-0.336 0.375-0.803 0.375-1.4v-3.24h2.098v6.563h-2.098v-0.949c-0.316 0.383-0.652 0.666-1.008 0.85-0.352 0.18-0.74 0.27-1.166 0.27-0.758 0-1.336-0.232-1.734-0.697-0.395-0.465-0.592-1.141-0.592-2.027"/>
   <path id="path4002" d="m53.293-141.99v3.445h-2.098v-9.059h2.098v0.961c0.289-0.383 0.609-0.664 0.961-0.844 0.352-0.184 0.756-0.275 1.213-0.275 0.809 0 1.473 0.322 1.992 0.967 0.52 0.641 0.779 1.467 0.779 2.478 0 1.012-0.26 1.84-0.779 2.484-0.52 0.641-1.184 0.961-1.992 0.961-0.457 0-0.861-0.09-1.213-0.27-0.352-0.184-0.672-0.467-0.961-0.85m1.395-4.248c-0.449 0-0.795 0.166-1.037 0.498-0.238 0.328-0.357 0.803-0.357 1.424 0 0.621 0.119 1.098 0.357 1.43 0.242 0.328 0.588 0.492 1.037 0.492 0.449 0 0.791-0.164 1.025-0.492 0.238-0.328 0.357-0.805 0.357-1.43 0-0.625-0.119-1.102-0.357-1.43-0.234-0.328-0.576-0.492-1.025-0.492"/>
   <path id="path4004" d="m70.566-145.04v3.996h-2.109v-0.65-2.408c0-0.566-0.014-0.957-0.041-1.172-0.023-0.215-0.066-0.373-0.129-0.475-0.082-0.137-0.193-0.242-0.334-0.316-0.141-0.078-0.301-0.117-0.48-0.117-0.438 0-0.781 0.17-1.031 0.51-0.25 0.336-0.375 0.803-0.375 1.4v3.228h-2.098v-6.563h2.098v0.961c0.316-0.383 0.652-0.664 1.008-0.844 0.355-0.184 0.748-0.275 1.178-0.275 0.758 0 1.332 0.232 1.723 0.697 0.395 0.465 0.592 1.141 0.592 2.027"/>
   <path id="path4006" d="m79.074-144.34v0.598h-4.904c0.051 0.492 0.229 0.861 0.533 1.107 0.305 0.246 0.73 0.369 1.277 0.369 0.441 0 0.893-0.064 1.353-0.193 0.465-0.133 0.941-0.332 1.43-0.598v1.617c-0.496 0.188-0.992 0.328-1.488 0.422-0.496 0.098-0.992 0.146-1.488 0.146-1.188 0-2.111-0.301-2.772-0.902-0.656-0.605-0.984-1.453-0.984-2.543 0-1.07 0.322-1.912 0.967-2.525 0.648-0.613 1.539-0.92 2.672-0.92 1.031 0 1.855 0.311 2.473 0.932 0.621 0.621 0.932 1.451 0.932 2.49m-2.156-0.697c0-0.398-0.117-0.719-0.352-0.961-0.23-0.246-0.533-0.369-0.908-0.369-0.406 0-0.736 0.115-0.99 0.346-0.254 0.227-0.412 0.555-0.475 0.984h2.725"/>
   <path id="path4008" d="m87.207-144.34v0.598h-4.904c0.051 0.492 0.229 0.861 0.533 1.107 0.305 0.246 0.73 0.369 1.277 0.369 0.441 0 0.893-0.064 1.353-0.193 0.465-0.133 0.941-0.332 1.43-0.598v1.617c-0.496 0.188-0.992 0.328-1.488 0.422-0.496 0.098-0.992 0.146-1.488 0.146-1.188 0-2.111-0.301-2.772-0.902-0.656-0.605-0.984-1.453-0.984-2.543 0-1.07 0.322-1.912 0.967-2.525 0.648-0.613 1.539-0.92 2.672-0.92 1.031 0 1.855 0.311 2.473 0.932 0.621 0.621 0.932 1.451 0.932 2.49m-2.156-0.697c0-0.398-0.117-0.719-0.352-0.961-0.23-0.246-0.533-0.369-0.908-0.369-0.406 0-0.736 0.115-0.99 0.346-0.254 0.227-0.412 0.555-0.475 0.984h2.725"/>
   <path id="path4010" d="m93.254-146.64v-3.516h2.109v9.117h-2.109v-0.949c-0.289 0.387-0.607 0.67-0.955 0.85-0.348 0.18-0.75 0.27-1.207 0.27-0.809 0-1.473-0.32-1.992-0.961-0.52-0.645-0.779-1.473-0.779-2.484 0-1.012 0.26-1.838 0.779-2.478 0.52-0.645 1.184-0.967 1.992-0.967 0.453 0 0.854 0.092 1.201 0.275 0.352 0.18 0.672 0.461 0.961 0.844m-1.383 4.248c0.449 0 0.791-0.164 1.025-0.492 0.238-0.328 0.357-0.805 0.357-1.43 0-0.625-0.119-1.102-0.357-1.43-0.234-0.328-0.576-0.492-1.025-0.492-0.445 0-0.787 0.164-1.025 0.492-0.234 0.328-0.352 0.805-0.352 1.43 0 0.625 0.117 1.102 0.352 1.43 0.238 0.328 0.58 0.492 1.025 0.492"/>
   <path id="path4012" d="m102.52-147.4v1.594c-0.449-0.188-0.883-0.328-1.301-0.422-0.418-0.094-0.813-0.141-1.184-0.141-0.398 0-0.695 0.051-0.891 0.152-0.191 0.098-0.287 0.25-0.287 0.457 0 0.168 0.072 0.297 0.217 0.387 0.148 0.09 0.412 0.156 0.791 0.199l0.369 0.053c1.074 0.137 1.797 0.361 2.168 0.674 0.371 0.313 0.557 0.803 0.557 1.471 0 0.699-0.258 1.225-0.773 1.576-0.516 0.352-1.285 0.527-2.309 0.527-0.434 0-0.883-0.035-1.348-0.105-0.461-0.066-0.936-0.168-1.424-0.305v-1.594c0.418 0.203 0.846 0.355 1.283 0.457 0.441 0.102 0.889 0.152 1.342 0.152 0.41 0 0.719-0.057 0.926-0.17 0.207-0.113 0.311-0.281 0.311-0.504 0-0.188-0.072-0.326-0.217-0.416-0.141-0.094-0.424-0.166-0.85-0.217l-0.369-0.047c-0.934-0.117-1.588-0.334-1.963-0.65-0.375-0.316-0.563-0.797-0.563-1.441 0-0.695 0.238-1.211 0.715-1.547 0.477-0.336 1.207-0.504 2.191-0.504 0.387 0 0.793 0.029 1.219 0.088 0.426 0.059 0.889 0.15 1.389 0.275"/>
   <path id="path4014" d="m105.55-141.52c-0.198 0.006-0.362-0.054-0.49-0.182-0.122-0.134-0.182-0.294-0.182-0.48 0.013-0.448 0.237-0.685 0.672-0.71 0.435 0.013 0.656 0.25 0.662 0.71 0 0.186-0.064 0.346-0.192 0.48-0.128 0.128-0.285 0.189-0.47 0.182"/>
  </g>
 </g>
</svg>
