<?xml version="1.0" encoding="UTF-8" standalone="no"?>
<!-- Created with Inkscape (http://www.inkscape.org/) -->

<svg
     xmlns:dc="http://purl.org/dc/elements/1.1/"
     xmlns:cc="http://creativecommons.org/ns#"
     xmlns:rdf="http://www.w3.org/1999/02/22-rdf-syntax-ns#"
     xmlns:svg="http://www.w3.org/2000/svg"
     xmlns="http://www.w3.org/2000/svg"
     xmlns:xlink="http://www.w3.org/1999/xlink"
     xmlns:sodipodi="http://sodipodi.sourceforge.net/DTD/sodipodi-0.dtd"
     xmlns:inkscape="http://www.inkscape.org/namespaces/inkscape"
     height="18.0625"
     id="svg1"
     inkscape:version="0.48.3.1 r9886"
     sodipodi:docname="publicDomainIcon-zoomIn.svg"
     sodipodi:version="0.32"
     version="1.0"
     width="19.84375"
     x="0"
     y="0">
    <metadata
         id="metadata3">
        <rdf:RDF>
            <cc:Work
                 rdf:about="">
                <dc:title />
                <dc:description />
                <dc:subject>
                    <rdf:Bag>
                        <rdf:li>hash</rdf:li>
                        <rdf:li />
                        <rdf:li>action</rdf:li>
                        <rdf:li>computer</rdf:li>
                        <rdf:li>icons</rdf:li>
                        <rdf:li>theme</rdf:li>
                    </rdf:Bag>
                </dc:subject>
                <dc:publisher>
                    <cc:Agent
                         rdf:about="http://www.openclipart.org">
                        <dc:title>Danny Allen</dc:title>
                    </cc:Agent>
                </dc:publisher>
                <dc:creator>
                    <cc:Agent>
                        <dc:title>Danny Allen</dc:title>
                    </cc:Agent>
                </dc:creator>
                <dc:rights>
                    <cc:Agent>
                        <dc:title>Danny Allen</dc:title>
                    </cc:Agent>
                </dc:rights>
                <dc:date />
                <dc:format>image/svg+xml</dc:format>
                <dc:type
                     rdf:resource="http://purl.org/dc/dcmitype/StillImage" />
                <cc:license
                     rdf:resource="http://web.resource.org/cc/PublicDomain" />
                <dc:language>en</dc:language>
            </cc:Work>
            <cc:License
                 rdf:about="http://web.resource.org/cc/PublicDomain">
                <cc:permits
                     rdf:resource="http://web.resource.org/cc/Reproduction" />
                <cc:permits
                     rdf:resource="http://web.resource.org/cc/Distribution" />
                <cc:permits
                     rdf:resource="http://web.resource.org/cc/DerivativeWorks" />
            </cc:License>
        </rdf:RDF>
    </metadata>
    <sodipodi:namedview
         bordercolor="#666666"
         borderopacity="1.0"
         id="base"
         inkscape:cx="28.316454"
         inkscape:cy="-7.7990083"
         inkscape:pageopacity="0.0"
         inkscape:pageshadow="2"
         inkscape:window-height="1124"
         inkscape:window-width="1920"
         inkscape:window-x="0"
         inkscape:window-y="24"
         inkscape:zoom="12"
         pagecolor="#ffffff"
         showgrid="false"
         inkscape:window-maximized="1"
         inkscape:current-layer="svg1"
         fit-margin-top="0"
         fit-margin-left="0"
         fit-margin-right="0"
         fit-margin-bottom="0" />
    <defs
         id="defs3">
        <linearGradient
             id="linearGradient1160">
            <stop
                 id="stop1161"
                 offset="0"
                 style="stop-color:#000;stop-opacity:1;" />
            <stop
                 id="stop1162"
                 offset="1"
                 style="stop-color:#fff;stop-opacity:1;" />
        </linearGradient>
        <linearGradient
             id="linearGradient1163"
             xlink:href="#linearGradient1160" />
    </defs>
    <path
         style="opacity:0.95999995;fill:#ffffff;fill-opacity:1;fill-rule:evenodd;stroke:none"
         d="m 0,0 0,18.0625 19.843749,0 0,-18.0625 L 0,0 z m 9.75,1.5625 c 4.062034,0 7.374999,3.281716 7.374999,7.34375 0,4.062034 -3.312965,7.34375 -7.374999,7.34375 -4.0620339,0 -7.34375,-3.281716 -7.34375,-7.34375 0,-4.062034 3.2817161,-7.34375 7.34375,-7.34375 z"
         id="rect3017"
         inkscape:connector-curvature="0" />
    <path
         d="m 47.865601,28.05961 a 20.603802,20.603802 0 1 1 -41.2076039,0 20.603802,20.603802 0 1 1 41.2076039,0 z"
         id="path1175"
         sodipodi:cx="27.261799"
         sodipodi:cy="28.05961"
         sodipodi:fill-cmyk="(0 0 0 0.2)"
         sodipodi:rx="20.603802"
         sodipodi:ry="20.603802"
         sodipodi:stroke-cmyk="(0 0 0 0.8)"
         sodipodi:type="arc"
         style="font-size:12px;fill:none;stroke:#333333;stroke-width:1.99733829;stroke-miterlimit:4;stroke-opacity:1;stroke-dasharray:none"
         transform="matrix(0.35697117,0,0,0.35697117,0.0735332,-1.4050145)" />
    <path
         d="m 8.6243252,7.4633692 0,-2.470491 c 0,-0.345594 0.094502,-0.626398 0.2835001,-0.842393 0.1889978,-0.221399 0.4589994,-0.332102 0.8099982,-0.332102 0.3509985,0 0.6209935,0.110703 0.8099925,0.332102 0.194402,0.215995 0.2916,0.496799 0.2916,0.842393 l 0,2.470491 2.438089,0 c 0.356403,0 0.637201,0.0972 0.8424,0.291593 0.210596,0.189005 0.315901,0.456304 0.315901,0.801898 0,0.351006 -0.105305,0.623703 -0.315901,0.818099 -0.205199,0.194402 -0.485997,0.2915996 -0.8424,0.2915996 l -2.438089,0 0,2.4623902 c 0,0.350999 -0.0972,0.634499 -0.2916,0.850493 -0.194397,0.216002 -0.464392,0.324002 -0.8099925,0.324002 -0.3456007,0 -0.6155957,-0.108 -0.8099982,-0.324002 C 8.7188275,12.763448 8.6243252,12.479948 8.6243252,12.128949 l 0,-2.4623902 -2.4380883,0 c -0.3455941,0 -0.6263985,-0.1052976 -0.8423931,-0.3159006 -0.2106033,-0.216002 -0.3159017,-0.480592 -0.3159017,-0.793791 0,-0.345601 0.1026027,-0.6129 0.3078013,-0.801905 C 5.54634,7.5605662 5.82984,7.4633692 6.1862369,7.4633692 l 2.4380883,0 z"
         id="path837-3"
         style="font-size:12px;font-weight:900;fill:#333333;fill-opacity:1;stroke:none;font-family:VAG Rounded Black SSi"
         inkscape:connector-curvature="0" />
</svg>
